G04 #@! TF.FileFunction,Copper,L2,Bot,Signal*
%FSLAX46Y46*%
G04 Gerber Fmt 4.6, Leading zero omitted, Abs format (unit mm)*
G04 Created by KiCad (PCBNEW 4.0.2-stable) date 12/06/2016 3:02:18 PM*
%MOMM*%
G01*
G04 APERTURE LIST*
%ADD10C,0.100000*%
%ADD11C,1.998980*%
%ADD12O,2.540000X2.032000*%
%ADD13O,0.899160X1.501140*%
%ADD14O,1.501140X0.899160*%
%ADD15C,1.397000*%
%ADD16C,4.064000*%
%ADD17R,2.500000X2.500000*%
%ADD18C,2.500000*%
%ADD19R,1.397000X1.397000*%
%ADD20C,0.635000*%
%ADD21C,0.254000*%
G04 APERTURE END LIST*
D10*
D11*
X148590000Y-104180640D03*
X148590000Y-109181900D03*
X153670000Y-104180640D03*
X153670000Y-109181900D03*
D12*
X152400000Y-115570000D03*
X152400000Y-118110000D03*
X152400000Y-113030000D03*
X167640000Y-115570000D03*
X167640000Y-118110000D03*
X167640000Y-113030000D03*
D13*
X142240000Y-93980000D03*
X140970000Y-93980000D03*
X143510000Y-93980000D03*
D14*
X160020000Y-101600000D03*
X160020000Y-102870000D03*
X160020000Y-100330000D03*
D12*
X160020000Y-115570000D03*
X160020000Y-118110000D03*
X160020000Y-113030000D03*
X136525000Y-115570000D03*
X136525000Y-118110000D03*
X136525000Y-113030000D03*
X144145000Y-115570000D03*
X144145000Y-118110000D03*
X144145000Y-113030000D03*
D14*
X142240000Y-101600000D03*
X142240000Y-102870000D03*
X142240000Y-100330000D03*
D11*
X151130000Y-85130640D03*
X151130000Y-90131900D03*
X142240000Y-85130640D03*
X142240000Y-90131900D03*
X160060640Y-93980000D03*
X165061900Y-93980000D03*
X160020000Y-85130640D03*
X160020000Y-90131900D03*
X165059360Y-107950000D03*
X160058100Y-107950000D03*
X137200640Y-107950000D03*
X142201900Y-107950000D03*
X148590000Y-94020640D03*
X148590000Y-99021900D03*
D15*
X163195000Y-79375000D03*
X158115000Y-79375000D03*
X163195000Y-71755000D03*
X158115000Y-71755000D03*
D16*
X168275000Y-71755000D03*
X136525000Y-71755000D03*
X136525000Y-131445000D03*
X168275000Y-131445000D03*
D17*
X148590000Y-74930000D03*
D18*
X153590000Y-74930000D03*
D17*
X149860000Y-128270000D03*
D18*
X144860000Y-128270000D03*
D17*
X160020000Y-128270000D03*
D18*
X155020000Y-128270000D03*
D19*
X142240000Y-76835000D03*
D15*
X142240000Y-74295000D03*
X142240000Y-71755000D03*
D20*
X153670000Y-104180640D02*
X153670000Y-75010000D01*
X153670000Y-75010000D02*
X153590000Y-74930000D01*
D21*
G36*
X166766239Y-69492709D02*
X166015345Y-70242293D01*
X165608464Y-71222173D01*
X165607538Y-72283172D01*
X166012709Y-73263761D01*
X166762293Y-74014655D01*
X167742173Y-74421536D01*
X168803172Y-74422462D01*
X169783761Y-74017291D01*
X170534655Y-73267707D01*
X170715000Y-72833387D01*
X170715000Y-130366328D01*
X170537291Y-129936239D01*
X169787707Y-129185345D01*
X168807827Y-128778464D01*
X167746828Y-128777538D01*
X166766239Y-129182709D01*
X166015345Y-129932293D01*
X165608464Y-130912173D01*
X165607538Y-131973172D01*
X166012709Y-132953761D01*
X166762293Y-133704655D01*
X167196613Y-133885000D01*
X137603672Y-133885000D01*
X138033761Y-133707291D01*
X138784655Y-132957707D01*
X139191536Y-131977827D01*
X139192462Y-130916828D01*
X138787291Y-129936239D01*
X138037707Y-129185345D01*
X137057827Y-128778464D01*
X135996828Y-128777538D01*
X135016239Y-129182709D01*
X134265345Y-129932293D01*
X134085000Y-130366613D01*
X134085000Y-128643305D01*
X142974674Y-128643305D01*
X143261043Y-129336372D01*
X143790839Y-129867093D01*
X144483405Y-130154672D01*
X145233305Y-130155326D01*
X145926372Y-129868957D01*
X146457093Y-129339161D01*
X146744672Y-128646595D01*
X146745326Y-127896695D01*
X146458957Y-127203628D01*
X146275650Y-127020000D01*
X147962560Y-127020000D01*
X147962560Y-129520000D01*
X148006838Y-129755317D01*
X148145910Y-129971441D01*
X148358110Y-130116431D01*
X148610000Y-130167440D01*
X151110000Y-130167440D01*
X151345317Y-130123162D01*
X151561441Y-129984090D01*
X151706431Y-129771890D01*
X151740567Y-129603320D01*
X153866285Y-129603320D01*
X153995533Y-129896123D01*
X154695806Y-130164388D01*
X155445435Y-130144250D01*
X156044467Y-129896123D01*
X156173715Y-129603320D01*
X155020000Y-128449605D01*
X153866285Y-129603320D01*
X151740567Y-129603320D01*
X151757440Y-129520000D01*
X151757440Y-127945806D01*
X153125612Y-127945806D01*
X153145750Y-128695435D01*
X153393877Y-129294467D01*
X153686680Y-129423715D01*
X154840395Y-128270000D01*
X155199605Y-128270000D01*
X156353320Y-129423715D01*
X156646123Y-129294467D01*
X156914388Y-128594194D01*
X156894250Y-127844565D01*
X156646123Y-127245533D01*
X156353320Y-127116285D01*
X155199605Y-128270000D01*
X154840395Y-128270000D01*
X153686680Y-127116285D01*
X153393877Y-127245533D01*
X153125612Y-127945806D01*
X151757440Y-127945806D01*
X151757440Y-127020000D01*
X151741763Y-126936680D01*
X153866285Y-126936680D01*
X155020000Y-128090395D01*
X156090395Y-127020000D01*
X158122560Y-127020000D01*
X158122560Y-129520000D01*
X158166838Y-129755317D01*
X158305910Y-129971441D01*
X158518110Y-130116431D01*
X158770000Y-130167440D01*
X161270000Y-130167440D01*
X161505317Y-130123162D01*
X161721441Y-129984090D01*
X161866431Y-129771890D01*
X161917440Y-129520000D01*
X161917440Y-127020000D01*
X161873162Y-126784683D01*
X161734090Y-126568559D01*
X161521890Y-126423569D01*
X161270000Y-126372560D01*
X158770000Y-126372560D01*
X158534683Y-126416838D01*
X158318559Y-126555910D01*
X158173569Y-126768110D01*
X158122560Y-127020000D01*
X156090395Y-127020000D01*
X156173715Y-126936680D01*
X156044467Y-126643877D01*
X155344194Y-126375612D01*
X154594565Y-126395750D01*
X153995533Y-126643877D01*
X153866285Y-126936680D01*
X151741763Y-126936680D01*
X151713162Y-126784683D01*
X151574090Y-126568559D01*
X151361890Y-126423569D01*
X151110000Y-126372560D01*
X148610000Y-126372560D01*
X148374683Y-126416838D01*
X148158559Y-126555910D01*
X148013569Y-126768110D01*
X147962560Y-127020000D01*
X146275650Y-127020000D01*
X145929161Y-126672907D01*
X145236595Y-126385328D01*
X144486695Y-126384674D01*
X143793628Y-126671043D01*
X143262907Y-127200839D01*
X142975328Y-127893405D01*
X142974674Y-128643305D01*
X134085000Y-128643305D01*
X134085000Y-113030000D01*
X134582679Y-113030000D01*
X134708354Y-113661810D01*
X135066246Y-114197433D01*
X135219748Y-114300000D01*
X135066246Y-114402567D01*
X134708354Y-114938190D01*
X134582679Y-115570000D01*
X134708354Y-116201810D01*
X135066246Y-116737433D01*
X135219748Y-116840000D01*
X135066246Y-116942567D01*
X134708354Y-117478190D01*
X134582679Y-118110000D01*
X134708354Y-118741810D01*
X135066246Y-119277433D01*
X135601869Y-119635325D01*
X136233679Y-119761000D01*
X136816321Y-119761000D01*
X137448131Y-119635325D01*
X137983754Y-119277433D01*
X138341646Y-118741810D01*
X138467321Y-118110000D01*
X138341646Y-117478190D01*
X137983754Y-116942567D01*
X137830252Y-116840000D01*
X137983754Y-116737433D01*
X138341646Y-116201810D01*
X138467321Y-115570000D01*
X138341646Y-114938190D01*
X137983754Y-114402567D01*
X137830252Y-114300000D01*
X137983754Y-114197433D01*
X138341646Y-113661810D01*
X138467321Y-113030000D01*
X142202679Y-113030000D01*
X142328354Y-113661810D01*
X142686246Y-114197433D01*
X142839748Y-114300000D01*
X142686246Y-114402567D01*
X142328354Y-114938190D01*
X142202679Y-115570000D01*
X142328354Y-116201810D01*
X142686246Y-116737433D01*
X142839748Y-116840000D01*
X142686246Y-116942567D01*
X142328354Y-117478190D01*
X142202679Y-118110000D01*
X142328354Y-118741810D01*
X142686246Y-119277433D01*
X143221869Y-119635325D01*
X143853679Y-119761000D01*
X144436321Y-119761000D01*
X145068131Y-119635325D01*
X145603754Y-119277433D01*
X145961646Y-118741810D01*
X146011148Y-118492944D01*
X150540025Y-118492944D01*
X150572074Y-118624477D01*
X150888764Y-119187630D01*
X151396857Y-119586724D01*
X152019000Y-119761000D01*
X152273000Y-119761000D01*
X152273000Y-118237000D01*
X152527000Y-118237000D01*
X152527000Y-119761000D01*
X152781000Y-119761000D01*
X153403143Y-119586724D01*
X153911236Y-119187630D01*
X154227926Y-118624477D01*
X154259975Y-118492944D01*
X154140836Y-118237000D01*
X152527000Y-118237000D01*
X152273000Y-118237000D01*
X150659164Y-118237000D01*
X150540025Y-118492944D01*
X146011148Y-118492944D01*
X146087321Y-118110000D01*
X145961646Y-117478190D01*
X145603754Y-116942567D01*
X145450252Y-116840000D01*
X145603754Y-116737433D01*
X145961646Y-116201810D01*
X146087321Y-115570000D01*
X145961646Y-114938190D01*
X145603754Y-114402567D01*
X145450252Y-114300000D01*
X145603754Y-114197433D01*
X145961646Y-113661810D01*
X146087321Y-113030000D01*
X150457679Y-113030000D01*
X150583354Y-113661810D01*
X150941246Y-114197433D01*
X151094748Y-114300000D01*
X150941246Y-114402567D01*
X150583354Y-114938190D01*
X150457679Y-115570000D01*
X150583354Y-116201810D01*
X150941246Y-116737433D01*
X151115781Y-116854054D01*
X150888764Y-117032370D01*
X150572074Y-117595523D01*
X150540025Y-117727056D01*
X150659164Y-117983000D01*
X152273000Y-117983000D01*
X152273000Y-117963000D01*
X152527000Y-117963000D01*
X152527000Y-117983000D01*
X154140836Y-117983000D01*
X154259975Y-117727056D01*
X154227926Y-117595523D01*
X153911236Y-117032370D01*
X153684219Y-116854054D01*
X153858754Y-116737433D01*
X154216646Y-116201810D01*
X154342321Y-115570000D01*
X154216646Y-114938190D01*
X153858754Y-114402567D01*
X153705252Y-114300000D01*
X153858754Y-114197433D01*
X154216646Y-113661810D01*
X154342321Y-113030000D01*
X158077679Y-113030000D01*
X158203354Y-113661810D01*
X158561246Y-114197433D01*
X158714748Y-114300000D01*
X158561246Y-114402567D01*
X158203354Y-114938190D01*
X158077679Y-115570000D01*
X158203354Y-116201810D01*
X158561246Y-116737433D01*
X158714748Y-116840000D01*
X158561246Y-116942567D01*
X158203354Y-117478190D01*
X158077679Y-118110000D01*
X158203354Y-118741810D01*
X158561246Y-119277433D01*
X159096869Y-119635325D01*
X159728679Y-119761000D01*
X160311321Y-119761000D01*
X160943131Y-119635325D01*
X161478754Y-119277433D01*
X161836646Y-118741810D01*
X161962321Y-118110000D01*
X161836646Y-117478190D01*
X161478754Y-116942567D01*
X161325252Y-116840000D01*
X161478754Y-116737433D01*
X161836646Y-116201810D01*
X161962321Y-115570000D01*
X161836646Y-114938190D01*
X161478754Y-114402567D01*
X161325252Y-114300000D01*
X161478754Y-114197433D01*
X161836646Y-113661810D01*
X161962321Y-113030000D01*
X165697679Y-113030000D01*
X165823354Y-113661810D01*
X166181246Y-114197433D01*
X166334748Y-114300000D01*
X166181246Y-114402567D01*
X165823354Y-114938190D01*
X165697679Y-115570000D01*
X165823354Y-116201810D01*
X166181246Y-116737433D01*
X166334748Y-116840000D01*
X166181246Y-116942567D01*
X165823354Y-117478190D01*
X165697679Y-118110000D01*
X165823354Y-118741810D01*
X166181246Y-119277433D01*
X166716869Y-119635325D01*
X167348679Y-119761000D01*
X167931321Y-119761000D01*
X168563131Y-119635325D01*
X169098754Y-119277433D01*
X169456646Y-118741810D01*
X169582321Y-118110000D01*
X169456646Y-117478190D01*
X169098754Y-116942567D01*
X168945252Y-116840000D01*
X169098754Y-116737433D01*
X169456646Y-116201810D01*
X169582321Y-115570000D01*
X169456646Y-114938190D01*
X169098754Y-114402567D01*
X168945252Y-114300000D01*
X169098754Y-114197433D01*
X169456646Y-113661810D01*
X169582321Y-113030000D01*
X169456646Y-112398190D01*
X169098754Y-111862567D01*
X168563131Y-111504675D01*
X167931321Y-111379000D01*
X167348679Y-111379000D01*
X166716869Y-111504675D01*
X166181246Y-111862567D01*
X165823354Y-112398190D01*
X165697679Y-113030000D01*
X161962321Y-113030000D01*
X161836646Y-112398190D01*
X161478754Y-111862567D01*
X160943131Y-111504675D01*
X160311321Y-111379000D01*
X159728679Y-111379000D01*
X159096869Y-111504675D01*
X158561246Y-111862567D01*
X158203354Y-112398190D01*
X158077679Y-113030000D01*
X154342321Y-113030000D01*
X154216646Y-112398190D01*
X153858754Y-111862567D01*
X153323131Y-111504675D01*
X152691321Y-111379000D01*
X152108679Y-111379000D01*
X151476869Y-111504675D01*
X150941246Y-111862567D01*
X150583354Y-112398190D01*
X150457679Y-113030000D01*
X146087321Y-113030000D01*
X145961646Y-112398190D01*
X145603754Y-111862567D01*
X145068131Y-111504675D01*
X144436321Y-111379000D01*
X143853679Y-111379000D01*
X143221869Y-111504675D01*
X142686246Y-111862567D01*
X142328354Y-112398190D01*
X142202679Y-113030000D01*
X138467321Y-113030000D01*
X138341646Y-112398190D01*
X137983754Y-111862567D01*
X137448131Y-111504675D01*
X136816321Y-111379000D01*
X136233679Y-111379000D01*
X135601869Y-111504675D01*
X135066246Y-111862567D01*
X134708354Y-112398190D01*
X134582679Y-113030000D01*
X134085000Y-113030000D01*
X134085000Y-108273694D01*
X135565866Y-108273694D01*
X135814178Y-108874655D01*
X136273567Y-109334846D01*
X136874093Y-109584206D01*
X137524334Y-109584774D01*
X138125295Y-109336462D01*
X138585486Y-108877073D01*
X138834846Y-108276547D01*
X138834848Y-108273694D01*
X140567126Y-108273694D01*
X140815438Y-108874655D01*
X141274827Y-109334846D01*
X141875353Y-109584206D01*
X142525594Y-109584774D01*
X142717224Y-109505594D01*
X146955226Y-109505594D01*
X147203538Y-110106555D01*
X147662927Y-110566746D01*
X148263453Y-110816106D01*
X148913694Y-110816674D01*
X149514655Y-110568362D01*
X149974846Y-110108973D01*
X150224206Y-109508447D01*
X150224208Y-109505594D01*
X152035226Y-109505594D01*
X152283538Y-110106555D01*
X152742927Y-110566746D01*
X153343453Y-110816106D01*
X153993694Y-110816674D01*
X154594655Y-110568362D01*
X155054846Y-110108973D01*
X155304206Y-109508447D01*
X155304774Y-108858206D01*
X155063259Y-108273694D01*
X158423326Y-108273694D01*
X158671638Y-108874655D01*
X159131027Y-109334846D01*
X159731553Y-109584206D01*
X160381794Y-109584774D01*
X160982755Y-109336462D01*
X161442946Y-108877073D01*
X161692306Y-108276547D01*
X161692308Y-108273694D01*
X163424586Y-108273694D01*
X163672898Y-108874655D01*
X164132287Y-109334846D01*
X164732813Y-109584206D01*
X165383054Y-109584774D01*
X165984015Y-109336462D01*
X166444206Y-108877073D01*
X166693566Y-108276547D01*
X166694134Y-107626306D01*
X166445822Y-107025345D01*
X165986433Y-106565154D01*
X165385907Y-106315794D01*
X164735666Y-106315226D01*
X164134705Y-106563538D01*
X163674514Y-107022927D01*
X163425154Y-107623453D01*
X163424586Y-108273694D01*
X161692308Y-108273694D01*
X161692874Y-107626306D01*
X161444562Y-107025345D01*
X160985173Y-106565154D01*
X160384647Y-106315794D01*
X159734406Y-106315226D01*
X159133445Y-106563538D01*
X158673254Y-107022927D01*
X158423894Y-107623453D01*
X158423326Y-108273694D01*
X155063259Y-108273694D01*
X155056462Y-108257245D01*
X154597073Y-107797054D01*
X153996547Y-107547694D01*
X153346306Y-107547126D01*
X152745345Y-107795438D01*
X152285154Y-108254827D01*
X152035794Y-108855353D01*
X152035226Y-109505594D01*
X150224208Y-109505594D01*
X150224774Y-108858206D01*
X149976462Y-108257245D01*
X149517073Y-107797054D01*
X148916547Y-107547694D01*
X148266306Y-107547126D01*
X147665345Y-107795438D01*
X147205154Y-108254827D01*
X146955794Y-108855353D01*
X146955226Y-109505594D01*
X142717224Y-109505594D01*
X143126555Y-109336462D01*
X143586746Y-108877073D01*
X143836106Y-108276547D01*
X143836674Y-107626306D01*
X143588362Y-107025345D01*
X143128973Y-106565154D01*
X142528447Y-106315794D01*
X141878206Y-106315226D01*
X141277245Y-106563538D01*
X140817054Y-107022927D01*
X140567694Y-107623453D01*
X140567126Y-108273694D01*
X138834848Y-108273694D01*
X138835414Y-107626306D01*
X138587102Y-107025345D01*
X138127713Y-106565154D01*
X137527187Y-106315794D01*
X136876946Y-106315226D01*
X136275985Y-106563538D01*
X135815794Y-107022927D01*
X135566434Y-107623453D01*
X135565866Y-108273694D01*
X134085000Y-108273694D01*
X134085000Y-105332803D01*
X147617443Y-105332803D01*
X147716042Y-105599605D01*
X148325582Y-105826041D01*
X148975377Y-105801981D01*
X149463958Y-105599605D01*
X149562557Y-105332803D01*
X148590000Y-104360245D01*
X147617443Y-105332803D01*
X134085000Y-105332803D01*
X134085000Y-103163935D01*
X140895019Y-103163935D01*
X141082294Y-103547111D01*
X141406627Y-103823420D01*
X141812010Y-103954580D01*
X142113000Y-103954580D01*
X142113000Y-102997000D01*
X142367000Y-102997000D01*
X142367000Y-103954580D01*
X142667990Y-103954580D01*
X142786545Y-103916222D01*
X146944599Y-103916222D01*
X146968659Y-104566017D01*
X147171035Y-105054598D01*
X147437837Y-105153197D01*
X148410395Y-104180640D01*
X148769605Y-104180640D01*
X149742163Y-105153197D01*
X150008965Y-105054598D01*
X150235401Y-104445058D01*
X150211341Y-103795263D01*
X150008965Y-103306682D01*
X149742163Y-103208083D01*
X148769605Y-104180640D01*
X148410395Y-104180640D01*
X147437837Y-103208083D01*
X147171035Y-103306682D01*
X146944599Y-103916222D01*
X142786545Y-103916222D01*
X143073373Y-103823420D01*
X143397706Y-103547111D01*
X143584981Y-103163935D01*
X143481999Y-103028477D01*
X147617443Y-103028477D01*
X148590000Y-104001035D01*
X149562557Y-103028477D01*
X149463958Y-102761675D01*
X148854418Y-102535239D01*
X148204623Y-102559299D01*
X147716042Y-102761675D01*
X147617443Y-103028477D01*
X143481999Y-103028477D01*
X143458068Y-102997000D01*
X142367000Y-102997000D01*
X142113000Y-102997000D01*
X141021932Y-102997000D01*
X140895019Y-103163935D01*
X134085000Y-103163935D01*
X134085000Y-100330000D01*
X140827285Y-100330000D01*
X140909844Y-100745051D01*
X141056809Y-100965000D01*
X140909844Y-101184949D01*
X140827285Y-101600000D01*
X140909844Y-102015051D01*
X141059641Y-102239238D01*
X140895019Y-102576065D01*
X141021932Y-102743000D01*
X142113000Y-102743000D01*
X142113000Y-102723000D01*
X142367000Y-102723000D01*
X142367000Y-102743000D01*
X143458068Y-102743000D01*
X143584981Y-102576065D01*
X143420359Y-102239238D01*
X143570156Y-102015051D01*
X143652715Y-101600000D01*
X143570156Y-101184949D01*
X143423191Y-100965000D01*
X143570156Y-100745051D01*
X143652715Y-100330000D01*
X143570156Y-99914949D01*
X143335049Y-99563086D01*
X143009549Y-99345594D01*
X146955226Y-99345594D01*
X147203538Y-99946555D01*
X147662927Y-100406746D01*
X148263453Y-100656106D01*
X148913694Y-100656674D01*
X149514655Y-100408362D01*
X149974846Y-99948973D01*
X150224206Y-99348447D01*
X150224774Y-98698206D01*
X149976462Y-98097245D01*
X149517073Y-97637054D01*
X148916547Y-97387694D01*
X148266306Y-97387126D01*
X147665345Y-97635438D01*
X147205154Y-98094827D01*
X146955794Y-98695353D01*
X146955226Y-99345594D01*
X143009549Y-99345594D01*
X142983186Y-99327979D01*
X142568135Y-99245420D01*
X141911865Y-99245420D01*
X141496814Y-99327979D01*
X141144951Y-99563086D01*
X140909844Y-99914949D01*
X140827285Y-100330000D01*
X134085000Y-100330000D01*
X134085000Y-94107000D01*
X139885420Y-94107000D01*
X139885420Y-94407990D01*
X140016580Y-94813373D01*
X140292889Y-95137706D01*
X140676065Y-95324981D01*
X140843000Y-95198068D01*
X140843000Y-94107000D01*
X139885420Y-94107000D01*
X134085000Y-94107000D01*
X134085000Y-93552010D01*
X139885420Y-93552010D01*
X139885420Y-93853000D01*
X140843000Y-93853000D01*
X140843000Y-92761932D01*
X141097000Y-92761932D01*
X141097000Y-93853000D01*
X141117000Y-93853000D01*
X141117000Y-94107000D01*
X141097000Y-94107000D01*
X141097000Y-95198068D01*
X141263935Y-95324981D01*
X141600762Y-95160359D01*
X141824949Y-95310156D01*
X142240000Y-95392715D01*
X142655051Y-95310156D01*
X142875000Y-95163191D01*
X143094949Y-95310156D01*
X143510000Y-95392715D01*
X143925051Y-95310156D01*
X144276914Y-95075049D01*
X144512021Y-94723186D01*
X144587379Y-94344334D01*
X146955226Y-94344334D01*
X147203538Y-94945295D01*
X147662927Y-95405486D01*
X148263453Y-95654846D01*
X148913694Y-95655414D01*
X149514655Y-95407102D01*
X149974846Y-94947713D01*
X150224206Y-94347187D01*
X150224774Y-93696946D01*
X149976462Y-93095985D01*
X149517073Y-92635794D01*
X148916547Y-92386434D01*
X148266306Y-92385866D01*
X147665345Y-92634178D01*
X147205154Y-93093567D01*
X146955794Y-93694093D01*
X146955226Y-94344334D01*
X144587379Y-94344334D01*
X144594580Y-94308135D01*
X144594580Y-93651865D01*
X144512021Y-93236814D01*
X144276914Y-92884951D01*
X143925051Y-92649844D01*
X143510000Y-92567285D01*
X143094949Y-92649844D01*
X142875000Y-92796809D01*
X142655051Y-92649844D01*
X142240000Y-92567285D01*
X141824949Y-92649844D01*
X141600762Y-92799641D01*
X141263935Y-92635019D01*
X141097000Y-92761932D01*
X140843000Y-92761932D01*
X140676065Y-92635019D01*
X140292889Y-92822294D01*
X140016580Y-93146627D01*
X139885420Y-93552010D01*
X134085000Y-93552010D01*
X134085000Y-90455594D01*
X140605226Y-90455594D01*
X140853538Y-91056555D01*
X141312927Y-91516746D01*
X141913453Y-91766106D01*
X142563694Y-91766674D01*
X143164655Y-91518362D01*
X143624846Y-91058973D01*
X143874206Y-90458447D01*
X143874774Y-89808206D01*
X143626462Y-89207245D01*
X143167073Y-88747054D01*
X142566547Y-88497694D01*
X141916306Y-88497126D01*
X141315345Y-88745438D01*
X140855154Y-89204827D01*
X140605794Y-89805353D01*
X140605226Y-90455594D01*
X134085000Y-90455594D01*
X134085000Y-86282803D01*
X141267443Y-86282803D01*
X141366042Y-86549605D01*
X141975582Y-86776041D01*
X142625377Y-86751981D01*
X143113958Y-86549605D01*
X143212557Y-86282803D01*
X142240000Y-85310245D01*
X141267443Y-86282803D01*
X134085000Y-86282803D01*
X134085000Y-84866222D01*
X140594599Y-84866222D01*
X140618659Y-85516017D01*
X140821035Y-86004598D01*
X141087837Y-86103197D01*
X142060395Y-85130640D01*
X142419605Y-85130640D01*
X143392163Y-86103197D01*
X143658965Y-86004598D01*
X143863380Y-85454334D01*
X149495226Y-85454334D01*
X149743538Y-86055295D01*
X150202927Y-86515486D01*
X150803453Y-86764846D01*
X151453694Y-86765414D01*
X152054655Y-86517102D01*
X152514846Y-86057713D01*
X152717500Y-85569668D01*
X152717500Y-89693794D01*
X152516462Y-89207245D01*
X152057073Y-88747054D01*
X151456547Y-88497694D01*
X150806306Y-88497126D01*
X150205345Y-88745438D01*
X149745154Y-89204827D01*
X149495794Y-89805353D01*
X149495226Y-90455594D01*
X149743538Y-91056555D01*
X150202927Y-91516746D01*
X150803453Y-91766106D01*
X151453694Y-91766674D01*
X152054655Y-91518362D01*
X152514846Y-91058973D01*
X152717500Y-90570928D01*
X152717500Y-102821974D01*
X152285154Y-103253567D01*
X152035794Y-103854093D01*
X152035226Y-104504334D01*
X152283538Y-105105295D01*
X152742927Y-105565486D01*
X153343453Y-105814846D01*
X153993694Y-105815414D01*
X154594655Y-105567102D01*
X155054846Y-105107713D01*
X155304206Y-104507187D01*
X155304774Y-103856946D01*
X155056462Y-103255985D01*
X154964573Y-103163935D01*
X158675019Y-103163935D01*
X158862294Y-103547111D01*
X159186627Y-103823420D01*
X159592010Y-103954580D01*
X159893000Y-103954580D01*
X159893000Y-102997000D01*
X160147000Y-102997000D01*
X160147000Y-103954580D01*
X160447990Y-103954580D01*
X160853373Y-103823420D01*
X161177706Y-103547111D01*
X161364981Y-103163935D01*
X161238068Y-102997000D01*
X160147000Y-102997000D01*
X159893000Y-102997000D01*
X158801932Y-102997000D01*
X158675019Y-103163935D01*
X154964573Y-103163935D01*
X154622500Y-102821265D01*
X154622500Y-100330000D01*
X158607285Y-100330000D01*
X158689844Y-100745051D01*
X158836809Y-100965000D01*
X158689844Y-101184949D01*
X158607285Y-101600000D01*
X158689844Y-102015051D01*
X158839641Y-102239238D01*
X158675019Y-102576065D01*
X158801932Y-102743000D01*
X159893000Y-102743000D01*
X159893000Y-102723000D01*
X160147000Y-102723000D01*
X160147000Y-102743000D01*
X161238068Y-102743000D01*
X161364981Y-102576065D01*
X161200359Y-102239238D01*
X161350156Y-102015051D01*
X161432715Y-101600000D01*
X161350156Y-101184949D01*
X161203191Y-100965000D01*
X161350156Y-100745051D01*
X161432715Y-100330000D01*
X161350156Y-99914949D01*
X161115049Y-99563086D01*
X160763186Y-99327979D01*
X160348135Y-99245420D01*
X159691865Y-99245420D01*
X159276814Y-99327979D01*
X158924951Y-99563086D01*
X158689844Y-99914949D01*
X158607285Y-100330000D01*
X154622500Y-100330000D01*
X154622500Y-94303694D01*
X158425866Y-94303694D01*
X158674178Y-94904655D01*
X159133567Y-95364846D01*
X159734093Y-95614206D01*
X160384334Y-95614774D01*
X160985295Y-95366462D01*
X161445486Y-94907073D01*
X161694846Y-94306547D01*
X161694848Y-94303694D01*
X163427126Y-94303694D01*
X163675438Y-94904655D01*
X164134827Y-95364846D01*
X164735353Y-95614206D01*
X165385594Y-95614774D01*
X165986555Y-95366462D01*
X166446746Y-94907073D01*
X166696106Y-94306547D01*
X166696674Y-93656306D01*
X166448362Y-93055345D01*
X165988973Y-92595154D01*
X165388447Y-92345794D01*
X164738206Y-92345226D01*
X164137245Y-92593538D01*
X163677054Y-93052927D01*
X163427694Y-93653453D01*
X163427126Y-94303694D01*
X161694848Y-94303694D01*
X161695414Y-93656306D01*
X161447102Y-93055345D01*
X160987713Y-92595154D01*
X160387187Y-92345794D01*
X159736946Y-92345226D01*
X159135985Y-92593538D01*
X158675794Y-93052927D01*
X158426434Y-93653453D01*
X158425866Y-94303694D01*
X154622500Y-94303694D01*
X154622500Y-90455594D01*
X158385226Y-90455594D01*
X158633538Y-91056555D01*
X159092927Y-91516746D01*
X159693453Y-91766106D01*
X160343694Y-91766674D01*
X160944655Y-91518362D01*
X161404846Y-91058973D01*
X161654206Y-90458447D01*
X161654774Y-89808206D01*
X161406462Y-89207245D01*
X160947073Y-88747054D01*
X160346547Y-88497694D01*
X159696306Y-88497126D01*
X159095345Y-88745438D01*
X158635154Y-89204827D01*
X158385794Y-89805353D01*
X158385226Y-90455594D01*
X154622500Y-90455594D01*
X154622500Y-85454334D01*
X158385226Y-85454334D01*
X158633538Y-86055295D01*
X159092927Y-86515486D01*
X159693453Y-86764846D01*
X160343694Y-86765414D01*
X160944655Y-86517102D01*
X161404846Y-86057713D01*
X161654206Y-85457187D01*
X161654774Y-84806946D01*
X161406462Y-84205985D01*
X160947073Y-83745794D01*
X160346547Y-83496434D01*
X159696306Y-83495866D01*
X159095345Y-83744178D01*
X158635154Y-84203567D01*
X158385794Y-84804093D01*
X158385226Y-85454334D01*
X154622500Y-85454334D01*
X154622500Y-79639086D01*
X156781269Y-79639086D01*
X156983854Y-80129380D01*
X157358647Y-80504827D01*
X157848587Y-80708268D01*
X158379086Y-80708731D01*
X158869380Y-80506146D01*
X159244827Y-80131353D01*
X159448268Y-79641413D01*
X159448270Y-79639086D01*
X161861269Y-79639086D01*
X162063854Y-80129380D01*
X162438647Y-80504827D01*
X162928587Y-80708268D01*
X163459086Y-80708731D01*
X163949380Y-80506146D01*
X164324827Y-80131353D01*
X164528268Y-79641413D01*
X164528731Y-79110914D01*
X164326146Y-78620620D01*
X163951353Y-78245173D01*
X163461413Y-78041732D01*
X162930914Y-78041269D01*
X162440620Y-78243854D01*
X162065173Y-78618647D01*
X161861732Y-79108587D01*
X161861269Y-79639086D01*
X159448270Y-79639086D01*
X159448731Y-79110914D01*
X159246146Y-78620620D01*
X158871353Y-78245173D01*
X158381413Y-78041732D01*
X157850914Y-78041269D01*
X157360620Y-78243854D01*
X156985173Y-78618647D01*
X156781732Y-79108587D01*
X156781269Y-79639086D01*
X154622500Y-79639086D01*
X154622500Y-76542953D01*
X154656372Y-76528957D01*
X155187093Y-75999161D01*
X155474672Y-75306595D01*
X155475326Y-74556695D01*
X155188957Y-73863628D01*
X154659161Y-73332907D01*
X153966595Y-73045328D01*
X153216695Y-73044674D01*
X152523628Y-73331043D01*
X151992907Y-73860839D01*
X151705328Y-74553405D01*
X151704674Y-75303305D01*
X151991043Y-75996372D01*
X152520839Y-76527093D01*
X152717500Y-76608754D01*
X152717500Y-84692534D01*
X152516462Y-84205985D01*
X152057073Y-83745794D01*
X151456547Y-83496434D01*
X150806306Y-83495866D01*
X150205345Y-83744178D01*
X149745154Y-84203567D01*
X149495794Y-84804093D01*
X149495226Y-85454334D01*
X143863380Y-85454334D01*
X143885401Y-85395058D01*
X143861341Y-84745263D01*
X143658965Y-84256682D01*
X143392163Y-84158083D01*
X142419605Y-85130640D01*
X142060395Y-85130640D01*
X141087837Y-84158083D01*
X140821035Y-84256682D01*
X140594599Y-84866222D01*
X134085000Y-84866222D01*
X134085000Y-83978477D01*
X141267443Y-83978477D01*
X142240000Y-84951035D01*
X143212557Y-83978477D01*
X143113958Y-83711675D01*
X142504418Y-83485239D01*
X141854623Y-83509299D01*
X141366042Y-83711675D01*
X141267443Y-83978477D01*
X134085000Y-83978477D01*
X134085000Y-76136500D01*
X140894060Y-76136500D01*
X140894060Y-77533500D01*
X140938338Y-77768817D01*
X141077410Y-77984941D01*
X141289610Y-78129931D01*
X141541500Y-78180940D01*
X142938500Y-78180940D01*
X143173817Y-78136662D01*
X143389941Y-77997590D01*
X143534931Y-77785390D01*
X143585940Y-77533500D01*
X143585940Y-76136500D01*
X143541662Y-75901183D01*
X143402590Y-75685059D01*
X143190390Y-75540069D01*
X142938500Y-75489060D01*
X142842116Y-75489060D01*
X142994380Y-75426146D01*
X143369827Y-75051353D01*
X143573268Y-74561413D01*
X143573731Y-74030914D01*
X143428737Y-73680000D01*
X146692560Y-73680000D01*
X146692560Y-76180000D01*
X146736838Y-76415317D01*
X146875910Y-76631441D01*
X147088110Y-76776431D01*
X147340000Y-76827440D01*
X149840000Y-76827440D01*
X150075317Y-76783162D01*
X150291441Y-76644090D01*
X150436431Y-76431890D01*
X150487440Y-76180000D01*
X150487440Y-73680000D01*
X150443162Y-73444683D01*
X150304090Y-73228559D01*
X150091890Y-73083569D01*
X149840000Y-73032560D01*
X147340000Y-73032560D01*
X147104683Y-73076838D01*
X146888559Y-73215910D01*
X146743569Y-73428110D01*
X146692560Y-73680000D01*
X143428737Y-73680000D01*
X143371146Y-73540620D01*
X142996353Y-73165173D01*
X142658554Y-73024906D01*
X142994380Y-72886146D01*
X143369827Y-72511353D01*
X143573268Y-72021413D01*
X143573270Y-72019086D01*
X156781269Y-72019086D01*
X156983854Y-72509380D01*
X157358647Y-72884827D01*
X157848587Y-73088268D01*
X158379086Y-73088731D01*
X158869380Y-72886146D01*
X159244827Y-72511353D01*
X159448268Y-72021413D01*
X159448270Y-72019086D01*
X161861269Y-72019086D01*
X162063854Y-72509380D01*
X162438647Y-72884827D01*
X162928587Y-73088268D01*
X163459086Y-73088731D01*
X163949380Y-72886146D01*
X164324827Y-72511353D01*
X164528268Y-72021413D01*
X164528731Y-71490914D01*
X164326146Y-71000620D01*
X163951353Y-70625173D01*
X163461413Y-70421732D01*
X162930914Y-70421269D01*
X162440620Y-70623854D01*
X162065173Y-70998647D01*
X161861732Y-71488587D01*
X161861269Y-72019086D01*
X159448270Y-72019086D01*
X159448731Y-71490914D01*
X159246146Y-71000620D01*
X158871353Y-70625173D01*
X158381413Y-70421732D01*
X157850914Y-70421269D01*
X157360620Y-70623854D01*
X156985173Y-70998647D01*
X156781732Y-71488587D01*
X156781269Y-72019086D01*
X143573270Y-72019086D01*
X143573731Y-71490914D01*
X143371146Y-71000620D01*
X142996353Y-70625173D01*
X142506413Y-70421732D01*
X141975914Y-70421269D01*
X141485620Y-70623854D01*
X141110173Y-70998647D01*
X140906732Y-71488587D01*
X140906269Y-72019086D01*
X141108854Y-72509380D01*
X141483647Y-72884827D01*
X141821446Y-73025094D01*
X141485620Y-73163854D01*
X141110173Y-73538647D01*
X140906732Y-74028587D01*
X140906269Y-74559086D01*
X141108854Y-75049380D01*
X141483647Y-75424827D01*
X141638337Y-75489060D01*
X141541500Y-75489060D01*
X141306183Y-75533338D01*
X141090059Y-75672410D01*
X140945069Y-75884610D01*
X140894060Y-76136500D01*
X134085000Y-76136500D01*
X134085000Y-72833672D01*
X134262709Y-73263761D01*
X135012293Y-74014655D01*
X135992173Y-74421536D01*
X137053172Y-74422462D01*
X138033761Y-74017291D01*
X138784655Y-73267707D01*
X139191536Y-72287827D01*
X139192462Y-71226828D01*
X138787291Y-70246239D01*
X138037707Y-69495345D01*
X137543180Y-69290000D01*
X167256832Y-69290000D01*
X166766239Y-69492709D01*
X166766239Y-69492709D01*
G37*
X166766239Y-69492709D02*
X166015345Y-70242293D01*
X165608464Y-71222173D01*
X165607538Y-72283172D01*
X166012709Y-73263761D01*
X166762293Y-74014655D01*
X167742173Y-74421536D01*
X168803172Y-74422462D01*
X169783761Y-74017291D01*
X170534655Y-73267707D01*
X170715000Y-72833387D01*
X170715000Y-130366328D01*
X170537291Y-129936239D01*
X169787707Y-129185345D01*
X168807827Y-128778464D01*
X167746828Y-128777538D01*
X166766239Y-129182709D01*
X166015345Y-129932293D01*
X165608464Y-130912173D01*
X165607538Y-131973172D01*
X166012709Y-132953761D01*
X166762293Y-133704655D01*
X167196613Y-133885000D01*
X137603672Y-133885000D01*
X138033761Y-133707291D01*
X138784655Y-132957707D01*
X139191536Y-131977827D01*
X139192462Y-130916828D01*
X138787291Y-129936239D01*
X138037707Y-129185345D01*
X137057827Y-128778464D01*
X135996828Y-128777538D01*
X135016239Y-129182709D01*
X134265345Y-129932293D01*
X134085000Y-130366613D01*
X134085000Y-128643305D01*
X142974674Y-128643305D01*
X143261043Y-129336372D01*
X143790839Y-129867093D01*
X144483405Y-130154672D01*
X145233305Y-130155326D01*
X145926372Y-129868957D01*
X146457093Y-129339161D01*
X146744672Y-128646595D01*
X146745326Y-127896695D01*
X146458957Y-127203628D01*
X146275650Y-127020000D01*
X147962560Y-127020000D01*
X147962560Y-129520000D01*
X148006838Y-129755317D01*
X148145910Y-129971441D01*
X148358110Y-130116431D01*
X148610000Y-130167440D01*
X151110000Y-130167440D01*
X151345317Y-130123162D01*
X151561441Y-129984090D01*
X151706431Y-129771890D01*
X151740567Y-129603320D01*
X153866285Y-129603320D01*
X153995533Y-129896123D01*
X154695806Y-130164388D01*
X155445435Y-130144250D01*
X156044467Y-129896123D01*
X156173715Y-129603320D01*
X155020000Y-128449605D01*
X153866285Y-129603320D01*
X151740567Y-129603320D01*
X151757440Y-129520000D01*
X151757440Y-127945806D01*
X153125612Y-127945806D01*
X153145750Y-128695435D01*
X153393877Y-129294467D01*
X153686680Y-129423715D01*
X154840395Y-128270000D01*
X155199605Y-128270000D01*
X156353320Y-129423715D01*
X156646123Y-129294467D01*
X156914388Y-128594194D01*
X156894250Y-127844565D01*
X156646123Y-127245533D01*
X156353320Y-127116285D01*
X155199605Y-128270000D01*
X154840395Y-128270000D01*
X153686680Y-127116285D01*
X153393877Y-127245533D01*
X153125612Y-127945806D01*
X151757440Y-127945806D01*
X151757440Y-127020000D01*
X151741763Y-126936680D01*
X153866285Y-126936680D01*
X155020000Y-128090395D01*
X156090395Y-127020000D01*
X158122560Y-127020000D01*
X158122560Y-129520000D01*
X158166838Y-129755317D01*
X158305910Y-129971441D01*
X158518110Y-130116431D01*
X158770000Y-130167440D01*
X161270000Y-130167440D01*
X161505317Y-130123162D01*
X161721441Y-129984090D01*
X161866431Y-129771890D01*
X161917440Y-129520000D01*
X161917440Y-127020000D01*
X161873162Y-126784683D01*
X161734090Y-126568559D01*
X161521890Y-126423569D01*
X161270000Y-126372560D01*
X158770000Y-126372560D01*
X158534683Y-126416838D01*
X158318559Y-126555910D01*
X158173569Y-126768110D01*
X158122560Y-127020000D01*
X156090395Y-127020000D01*
X156173715Y-126936680D01*
X156044467Y-126643877D01*
X155344194Y-126375612D01*
X154594565Y-126395750D01*
X153995533Y-126643877D01*
X153866285Y-126936680D01*
X151741763Y-126936680D01*
X151713162Y-126784683D01*
X151574090Y-126568559D01*
X151361890Y-126423569D01*
X151110000Y-126372560D01*
X148610000Y-126372560D01*
X148374683Y-126416838D01*
X148158559Y-126555910D01*
X148013569Y-126768110D01*
X147962560Y-127020000D01*
X146275650Y-127020000D01*
X145929161Y-126672907D01*
X145236595Y-126385328D01*
X144486695Y-126384674D01*
X143793628Y-126671043D01*
X143262907Y-127200839D01*
X142975328Y-127893405D01*
X142974674Y-128643305D01*
X134085000Y-128643305D01*
X134085000Y-113030000D01*
X134582679Y-113030000D01*
X134708354Y-113661810D01*
X135066246Y-114197433D01*
X135219748Y-114300000D01*
X135066246Y-114402567D01*
X134708354Y-114938190D01*
X134582679Y-115570000D01*
X134708354Y-116201810D01*
X135066246Y-116737433D01*
X135219748Y-116840000D01*
X135066246Y-116942567D01*
X134708354Y-117478190D01*
X134582679Y-118110000D01*
X134708354Y-118741810D01*
X135066246Y-119277433D01*
X135601869Y-119635325D01*
X136233679Y-119761000D01*
X136816321Y-119761000D01*
X137448131Y-119635325D01*
X137983754Y-119277433D01*
X138341646Y-118741810D01*
X138467321Y-118110000D01*
X138341646Y-117478190D01*
X137983754Y-116942567D01*
X137830252Y-116840000D01*
X137983754Y-116737433D01*
X138341646Y-116201810D01*
X138467321Y-115570000D01*
X138341646Y-114938190D01*
X137983754Y-114402567D01*
X137830252Y-114300000D01*
X137983754Y-114197433D01*
X138341646Y-113661810D01*
X138467321Y-113030000D01*
X142202679Y-113030000D01*
X142328354Y-113661810D01*
X142686246Y-114197433D01*
X142839748Y-114300000D01*
X142686246Y-114402567D01*
X142328354Y-114938190D01*
X142202679Y-115570000D01*
X142328354Y-116201810D01*
X142686246Y-116737433D01*
X142839748Y-116840000D01*
X142686246Y-116942567D01*
X142328354Y-117478190D01*
X142202679Y-118110000D01*
X142328354Y-118741810D01*
X142686246Y-119277433D01*
X143221869Y-119635325D01*
X143853679Y-119761000D01*
X144436321Y-119761000D01*
X145068131Y-119635325D01*
X145603754Y-119277433D01*
X145961646Y-118741810D01*
X146011148Y-118492944D01*
X150540025Y-118492944D01*
X150572074Y-118624477D01*
X150888764Y-119187630D01*
X151396857Y-119586724D01*
X152019000Y-119761000D01*
X152273000Y-119761000D01*
X152273000Y-118237000D01*
X152527000Y-118237000D01*
X152527000Y-119761000D01*
X152781000Y-119761000D01*
X153403143Y-119586724D01*
X153911236Y-119187630D01*
X154227926Y-118624477D01*
X154259975Y-118492944D01*
X154140836Y-118237000D01*
X152527000Y-118237000D01*
X152273000Y-118237000D01*
X150659164Y-118237000D01*
X150540025Y-118492944D01*
X146011148Y-118492944D01*
X146087321Y-118110000D01*
X145961646Y-117478190D01*
X145603754Y-116942567D01*
X145450252Y-116840000D01*
X145603754Y-116737433D01*
X145961646Y-116201810D01*
X146087321Y-115570000D01*
X145961646Y-114938190D01*
X145603754Y-114402567D01*
X145450252Y-114300000D01*
X145603754Y-114197433D01*
X145961646Y-113661810D01*
X146087321Y-113030000D01*
X150457679Y-113030000D01*
X150583354Y-113661810D01*
X150941246Y-114197433D01*
X151094748Y-114300000D01*
X150941246Y-114402567D01*
X150583354Y-114938190D01*
X150457679Y-115570000D01*
X150583354Y-116201810D01*
X150941246Y-116737433D01*
X151115781Y-116854054D01*
X150888764Y-117032370D01*
X150572074Y-117595523D01*
X150540025Y-117727056D01*
X150659164Y-117983000D01*
X152273000Y-117983000D01*
X152273000Y-117963000D01*
X152527000Y-117963000D01*
X152527000Y-117983000D01*
X154140836Y-117983000D01*
X154259975Y-117727056D01*
X154227926Y-117595523D01*
X153911236Y-117032370D01*
X153684219Y-116854054D01*
X153858754Y-116737433D01*
X154216646Y-116201810D01*
X154342321Y-115570000D01*
X154216646Y-114938190D01*
X153858754Y-114402567D01*
X153705252Y-114300000D01*
X153858754Y-114197433D01*
X154216646Y-113661810D01*
X154342321Y-113030000D01*
X158077679Y-113030000D01*
X158203354Y-113661810D01*
X158561246Y-114197433D01*
X158714748Y-114300000D01*
X158561246Y-114402567D01*
X158203354Y-114938190D01*
X158077679Y-115570000D01*
X158203354Y-116201810D01*
X158561246Y-116737433D01*
X158714748Y-116840000D01*
X158561246Y-116942567D01*
X158203354Y-117478190D01*
X158077679Y-118110000D01*
X158203354Y-118741810D01*
X158561246Y-119277433D01*
X159096869Y-119635325D01*
X159728679Y-119761000D01*
X160311321Y-119761000D01*
X160943131Y-119635325D01*
X161478754Y-119277433D01*
X161836646Y-118741810D01*
X161962321Y-118110000D01*
X161836646Y-117478190D01*
X161478754Y-116942567D01*
X161325252Y-116840000D01*
X161478754Y-116737433D01*
X161836646Y-116201810D01*
X161962321Y-115570000D01*
X161836646Y-114938190D01*
X161478754Y-114402567D01*
X161325252Y-114300000D01*
X161478754Y-114197433D01*
X161836646Y-113661810D01*
X161962321Y-113030000D01*
X165697679Y-113030000D01*
X165823354Y-113661810D01*
X166181246Y-114197433D01*
X166334748Y-114300000D01*
X166181246Y-114402567D01*
X165823354Y-114938190D01*
X165697679Y-115570000D01*
X165823354Y-116201810D01*
X166181246Y-116737433D01*
X166334748Y-116840000D01*
X166181246Y-116942567D01*
X165823354Y-117478190D01*
X165697679Y-118110000D01*
X165823354Y-118741810D01*
X166181246Y-119277433D01*
X166716869Y-119635325D01*
X167348679Y-119761000D01*
X167931321Y-119761000D01*
X168563131Y-119635325D01*
X169098754Y-119277433D01*
X169456646Y-118741810D01*
X169582321Y-118110000D01*
X169456646Y-117478190D01*
X169098754Y-116942567D01*
X168945252Y-116840000D01*
X169098754Y-116737433D01*
X169456646Y-116201810D01*
X169582321Y-115570000D01*
X169456646Y-114938190D01*
X169098754Y-114402567D01*
X168945252Y-114300000D01*
X169098754Y-114197433D01*
X169456646Y-113661810D01*
X169582321Y-113030000D01*
X169456646Y-112398190D01*
X169098754Y-111862567D01*
X168563131Y-111504675D01*
X167931321Y-111379000D01*
X167348679Y-111379000D01*
X166716869Y-111504675D01*
X166181246Y-111862567D01*
X165823354Y-112398190D01*
X165697679Y-113030000D01*
X161962321Y-113030000D01*
X161836646Y-112398190D01*
X161478754Y-111862567D01*
X160943131Y-111504675D01*
X160311321Y-111379000D01*
X159728679Y-111379000D01*
X159096869Y-111504675D01*
X158561246Y-111862567D01*
X158203354Y-112398190D01*
X158077679Y-113030000D01*
X154342321Y-113030000D01*
X154216646Y-112398190D01*
X153858754Y-111862567D01*
X153323131Y-111504675D01*
X152691321Y-111379000D01*
X152108679Y-111379000D01*
X151476869Y-111504675D01*
X150941246Y-111862567D01*
X150583354Y-112398190D01*
X150457679Y-113030000D01*
X146087321Y-113030000D01*
X145961646Y-112398190D01*
X145603754Y-111862567D01*
X145068131Y-111504675D01*
X144436321Y-111379000D01*
X143853679Y-111379000D01*
X143221869Y-111504675D01*
X142686246Y-111862567D01*
X142328354Y-112398190D01*
X142202679Y-113030000D01*
X138467321Y-113030000D01*
X138341646Y-112398190D01*
X137983754Y-111862567D01*
X137448131Y-111504675D01*
X136816321Y-111379000D01*
X136233679Y-111379000D01*
X135601869Y-111504675D01*
X135066246Y-111862567D01*
X134708354Y-112398190D01*
X134582679Y-113030000D01*
X134085000Y-113030000D01*
X134085000Y-108273694D01*
X135565866Y-108273694D01*
X135814178Y-108874655D01*
X136273567Y-109334846D01*
X136874093Y-109584206D01*
X137524334Y-109584774D01*
X138125295Y-109336462D01*
X138585486Y-108877073D01*
X138834846Y-108276547D01*
X138834848Y-108273694D01*
X140567126Y-108273694D01*
X140815438Y-108874655D01*
X141274827Y-109334846D01*
X141875353Y-109584206D01*
X142525594Y-109584774D01*
X142717224Y-109505594D01*
X146955226Y-109505594D01*
X147203538Y-110106555D01*
X147662927Y-110566746D01*
X148263453Y-110816106D01*
X148913694Y-110816674D01*
X149514655Y-110568362D01*
X149974846Y-110108973D01*
X150224206Y-109508447D01*
X150224208Y-109505594D01*
X152035226Y-109505594D01*
X152283538Y-110106555D01*
X152742927Y-110566746D01*
X153343453Y-110816106D01*
X153993694Y-110816674D01*
X154594655Y-110568362D01*
X155054846Y-110108973D01*
X155304206Y-109508447D01*
X155304774Y-108858206D01*
X155063259Y-108273694D01*
X158423326Y-108273694D01*
X158671638Y-108874655D01*
X159131027Y-109334846D01*
X159731553Y-109584206D01*
X160381794Y-109584774D01*
X160982755Y-109336462D01*
X161442946Y-108877073D01*
X161692306Y-108276547D01*
X161692308Y-108273694D01*
X163424586Y-108273694D01*
X163672898Y-108874655D01*
X164132287Y-109334846D01*
X164732813Y-109584206D01*
X165383054Y-109584774D01*
X165984015Y-109336462D01*
X166444206Y-108877073D01*
X166693566Y-108276547D01*
X166694134Y-107626306D01*
X166445822Y-107025345D01*
X165986433Y-106565154D01*
X165385907Y-106315794D01*
X164735666Y-106315226D01*
X164134705Y-106563538D01*
X163674514Y-107022927D01*
X163425154Y-107623453D01*
X163424586Y-108273694D01*
X161692308Y-108273694D01*
X161692874Y-107626306D01*
X161444562Y-107025345D01*
X160985173Y-106565154D01*
X160384647Y-106315794D01*
X159734406Y-106315226D01*
X159133445Y-106563538D01*
X158673254Y-107022927D01*
X158423894Y-107623453D01*
X158423326Y-108273694D01*
X155063259Y-108273694D01*
X155056462Y-108257245D01*
X154597073Y-107797054D01*
X153996547Y-107547694D01*
X153346306Y-107547126D01*
X152745345Y-107795438D01*
X152285154Y-108254827D01*
X152035794Y-108855353D01*
X152035226Y-109505594D01*
X150224208Y-109505594D01*
X150224774Y-108858206D01*
X149976462Y-108257245D01*
X149517073Y-107797054D01*
X148916547Y-107547694D01*
X148266306Y-107547126D01*
X147665345Y-107795438D01*
X147205154Y-108254827D01*
X146955794Y-108855353D01*
X146955226Y-109505594D01*
X142717224Y-109505594D01*
X143126555Y-109336462D01*
X143586746Y-108877073D01*
X143836106Y-108276547D01*
X143836674Y-107626306D01*
X143588362Y-107025345D01*
X143128973Y-106565154D01*
X142528447Y-106315794D01*
X141878206Y-106315226D01*
X141277245Y-106563538D01*
X140817054Y-107022927D01*
X140567694Y-107623453D01*
X140567126Y-108273694D01*
X138834848Y-108273694D01*
X138835414Y-107626306D01*
X138587102Y-107025345D01*
X138127713Y-106565154D01*
X137527187Y-106315794D01*
X136876946Y-106315226D01*
X136275985Y-106563538D01*
X135815794Y-107022927D01*
X135566434Y-107623453D01*
X135565866Y-108273694D01*
X134085000Y-108273694D01*
X134085000Y-105332803D01*
X147617443Y-105332803D01*
X147716042Y-105599605D01*
X148325582Y-105826041D01*
X148975377Y-105801981D01*
X149463958Y-105599605D01*
X149562557Y-105332803D01*
X148590000Y-104360245D01*
X147617443Y-105332803D01*
X134085000Y-105332803D01*
X134085000Y-103163935D01*
X140895019Y-103163935D01*
X141082294Y-103547111D01*
X141406627Y-103823420D01*
X141812010Y-103954580D01*
X142113000Y-103954580D01*
X142113000Y-102997000D01*
X142367000Y-102997000D01*
X142367000Y-103954580D01*
X142667990Y-103954580D01*
X142786545Y-103916222D01*
X146944599Y-103916222D01*
X146968659Y-104566017D01*
X147171035Y-105054598D01*
X147437837Y-105153197D01*
X148410395Y-104180640D01*
X148769605Y-104180640D01*
X149742163Y-105153197D01*
X150008965Y-105054598D01*
X150235401Y-104445058D01*
X150211341Y-103795263D01*
X150008965Y-103306682D01*
X149742163Y-103208083D01*
X148769605Y-104180640D01*
X148410395Y-104180640D01*
X147437837Y-103208083D01*
X147171035Y-103306682D01*
X146944599Y-103916222D01*
X142786545Y-103916222D01*
X143073373Y-103823420D01*
X143397706Y-103547111D01*
X143584981Y-103163935D01*
X143481999Y-103028477D01*
X147617443Y-103028477D01*
X148590000Y-104001035D01*
X149562557Y-103028477D01*
X149463958Y-102761675D01*
X148854418Y-102535239D01*
X148204623Y-102559299D01*
X147716042Y-102761675D01*
X147617443Y-103028477D01*
X143481999Y-103028477D01*
X143458068Y-102997000D01*
X142367000Y-102997000D01*
X142113000Y-102997000D01*
X141021932Y-102997000D01*
X140895019Y-103163935D01*
X134085000Y-103163935D01*
X134085000Y-100330000D01*
X140827285Y-100330000D01*
X140909844Y-100745051D01*
X141056809Y-100965000D01*
X140909844Y-101184949D01*
X140827285Y-101600000D01*
X140909844Y-102015051D01*
X141059641Y-102239238D01*
X140895019Y-102576065D01*
X141021932Y-102743000D01*
X142113000Y-102743000D01*
X142113000Y-102723000D01*
X142367000Y-102723000D01*
X142367000Y-102743000D01*
X143458068Y-102743000D01*
X143584981Y-102576065D01*
X143420359Y-102239238D01*
X143570156Y-102015051D01*
X143652715Y-101600000D01*
X143570156Y-101184949D01*
X143423191Y-100965000D01*
X143570156Y-100745051D01*
X143652715Y-100330000D01*
X143570156Y-99914949D01*
X143335049Y-99563086D01*
X143009549Y-99345594D01*
X146955226Y-99345594D01*
X147203538Y-99946555D01*
X147662927Y-100406746D01*
X148263453Y-100656106D01*
X148913694Y-100656674D01*
X149514655Y-100408362D01*
X149974846Y-99948973D01*
X150224206Y-99348447D01*
X150224774Y-98698206D01*
X149976462Y-98097245D01*
X149517073Y-97637054D01*
X148916547Y-97387694D01*
X148266306Y-97387126D01*
X147665345Y-97635438D01*
X147205154Y-98094827D01*
X146955794Y-98695353D01*
X146955226Y-99345594D01*
X143009549Y-99345594D01*
X142983186Y-99327979D01*
X142568135Y-99245420D01*
X141911865Y-99245420D01*
X141496814Y-99327979D01*
X141144951Y-99563086D01*
X140909844Y-99914949D01*
X140827285Y-100330000D01*
X134085000Y-100330000D01*
X134085000Y-94107000D01*
X139885420Y-94107000D01*
X139885420Y-94407990D01*
X140016580Y-94813373D01*
X140292889Y-95137706D01*
X140676065Y-95324981D01*
X140843000Y-95198068D01*
X140843000Y-94107000D01*
X139885420Y-94107000D01*
X134085000Y-94107000D01*
X134085000Y-93552010D01*
X139885420Y-93552010D01*
X139885420Y-93853000D01*
X140843000Y-93853000D01*
X140843000Y-92761932D01*
X141097000Y-92761932D01*
X141097000Y-93853000D01*
X141117000Y-93853000D01*
X141117000Y-94107000D01*
X141097000Y-94107000D01*
X141097000Y-95198068D01*
X141263935Y-95324981D01*
X141600762Y-95160359D01*
X141824949Y-95310156D01*
X142240000Y-95392715D01*
X142655051Y-95310156D01*
X142875000Y-95163191D01*
X143094949Y-95310156D01*
X143510000Y-95392715D01*
X143925051Y-95310156D01*
X144276914Y-95075049D01*
X144512021Y-94723186D01*
X144587379Y-94344334D01*
X146955226Y-94344334D01*
X147203538Y-94945295D01*
X147662927Y-95405486D01*
X148263453Y-95654846D01*
X148913694Y-95655414D01*
X149514655Y-95407102D01*
X149974846Y-94947713D01*
X150224206Y-94347187D01*
X150224774Y-93696946D01*
X149976462Y-93095985D01*
X149517073Y-92635794D01*
X148916547Y-92386434D01*
X148266306Y-92385866D01*
X147665345Y-92634178D01*
X147205154Y-93093567D01*
X146955794Y-93694093D01*
X146955226Y-94344334D01*
X144587379Y-94344334D01*
X144594580Y-94308135D01*
X144594580Y-93651865D01*
X144512021Y-93236814D01*
X144276914Y-92884951D01*
X143925051Y-92649844D01*
X143510000Y-92567285D01*
X143094949Y-92649844D01*
X142875000Y-92796809D01*
X142655051Y-92649844D01*
X142240000Y-92567285D01*
X141824949Y-92649844D01*
X141600762Y-92799641D01*
X141263935Y-92635019D01*
X141097000Y-92761932D01*
X140843000Y-92761932D01*
X140676065Y-92635019D01*
X140292889Y-92822294D01*
X140016580Y-93146627D01*
X139885420Y-93552010D01*
X134085000Y-93552010D01*
X134085000Y-90455594D01*
X140605226Y-90455594D01*
X140853538Y-91056555D01*
X141312927Y-91516746D01*
X141913453Y-91766106D01*
X142563694Y-91766674D01*
X143164655Y-91518362D01*
X143624846Y-91058973D01*
X143874206Y-90458447D01*
X143874774Y-89808206D01*
X143626462Y-89207245D01*
X143167073Y-88747054D01*
X142566547Y-88497694D01*
X141916306Y-88497126D01*
X141315345Y-88745438D01*
X140855154Y-89204827D01*
X140605794Y-89805353D01*
X140605226Y-90455594D01*
X134085000Y-90455594D01*
X134085000Y-86282803D01*
X141267443Y-86282803D01*
X141366042Y-86549605D01*
X141975582Y-86776041D01*
X142625377Y-86751981D01*
X143113958Y-86549605D01*
X143212557Y-86282803D01*
X142240000Y-85310245D01*
X141267443Y-86282803D01*
X134085000Y-86282803D01*
X134085000Y-84866222D01*
X140594599Y-84866222D01*
X140618659Y-85516017D01*
X140821035Y-86004598D01*
X141087837Y-86103197D01*
X142060395Y-85130640D01*
X142419605Y-85130640D01*
X143392163Y-86103197D01*
X143658965Y-86004598D01*
X143863380Y-85454334D01*
X149495226Y-85454334D01*
X149743538Y-86055295D01*
X150202927Y-86515486D01*
X150803453Y-86764846D01*
X151453694Y-86765414D01*
X152054655Y-86517102D01*
X152514846Y-86057713D01*
X152717500Y-85569668D01*
X152717500Y-89693794D01*
X152516462Y-89207245D01*
X152057073Y-88747054D01*
X151456547Y-88497694D01*
X150806306Y-88497126D01*
X150205345Y-88745438D01*
X149745154Y-89204827D01*
X149495794Y-89805353D01*
X149495226Y-90455594D01*
X149743538Y-91056555D01*
X150202927Y-91516746D01*
X150803453Y-91766106D01*
X151453694Y-91766674D01*
X152054655Y-91518362D01*
X152514846Y-91058973D01*
X152717500Y-90570928D01*
X152717500Y-102821974D01*
X152285154Y-103253567D01*
X152035794Y-103854093D01*
X152035226Y-104504334D01*
X152283538Y-105105295D01*
X152742927Y-105565486D01*
X153343453Y-105814846D01*
X153993694Y-105815414D01*
X154594655Y-105567102D01*
X155054846Y-105107713D01*
X155304206Y-104507187D01*
X155304774Y-103856946D01*
X155056462Y-103255985D01*
X154964573Y-103163935D01*
X158675019Y-103163935D01*
X158862294Y-103547111D01*
X159186627Y-103823420D01*
X159592010Y-103954580D01*
X159893000Y-103954580D01*
X159893000Y-102997000D01*
X160147000Y-102997000D01*
X160147000Y-103954580D01*
X160447990Y-103954580D01*
X160853373Y-103823420D01*
X161177706Y-103547111D01*
X161364981Y-103163935D01*
X161238068Y-102997000D01*
X160147000Y-102997000D01*
X159893000Y-102997000D01*
X158801932Y-102997000D01*
X158675019Y-103163935D01*
X154964573Y-103163935D01*
X154622500Y-102821265D01*
X154622500Y-100330000D01*
X158607285Y-100330000D01*
X158689844Y-100745051D01*
X158836809Y-100965000D01*
X158689844Y-101184949D01*
X158607285Y-101600000D01*
X158689844Y-102015051D01*
X158839641Y-102239238D01*
X158675019Y-102576065D01*
X158801932Y-102743000D01*
X159893000Y-102743000D01*
X159893000Y-102723000D01*
X160147000Y-102723000D01*
X160147000Y-102743000D01*
X161238068Y-102743000D01*
X161364981Y-102576065D01*
X161200359Y-102239238D01*
X161350156Y-102015051D01*
X161432715Y-101600000D01*
X161350156Y-101184949D01*
X161203191Y-100965000D01*
X161350156Y-100745051D01*
X161432715Y-100330000D01*
X161350156Y-99914949D01*
X161115049Y-99563086D01*
X160763186Y-99327979D01*
X160348135Y-99245420D01*
X159691865Y-99245420D01*
X159276814Y-99327979D01*
X158924951Y-99563086D01*
X158689844Y-99914949D01*
X158607285Y-100330000D01*
X154622500Y-100330000D01*
X154622500Y-94303694D01*
X158425866Y-94303694D01*
X158674178Y-94904655D01*
X159133567Y-95364846D01*
X159734093Y-95614206D01*
X160384334Y-95614774D01*
X160985295Y-95366462D01*
X161445486Y-94907073D01*
X161694846Y-94306547D01*
X161694848Y-94303694D01*
X163427126Y-94303694D01*
X163675438Y-94904655D01*
X164134827Y-95364846D01*
X164735353Y-95614206D01*
X165385594Y-95614774D01*
X165986555Y-95366462D01*
X166446746Y-94907073D01*
X166696106Y-94306547D01*
X166696674Y-93656306D01*
X166448362Y-93055345D01*
X165988973Y-92595154D01*
X165388447Y-92345794D01*
X164738206Y-92345226D01*
X164137245Y-92593538D01*
X163677054Y-93052927D01*
X163427694Y-93653453D01*
X163427126Y-94303694D01*
X161694848Y-94303694D01*
X161695414Y-93656306D01*
X161447102Y-93055345D01*
X160987713Y-92595154D01*
X160387187Y-92345794D01*
X159736946Y-92345226D01*
X159135985Y-92593538D01*
X158675794Y-93052927D01*
X158426434Y-93653453D01*
X158425866Y-94303694D01*
X154622500Y-94303694D01*
X154622500Y-90455594D01*
X158385226Y-90455594D01*
X158633538Y-91056555D01*
X159092927Y-91516746D01*
X159693453Y-91766106D01*
X160343694Y-91766674D01*
X160944655Y-91518362D01*
X161404846Y-91058973D01*
X161654206Y-90458447D01*
X161654774Y-89808206D01*
X161406462Y-89207245D01*
X160947073Y-88747054D01*
X160346547Y-88497694D01*
X159696306Y-88497126D01*
X159095345Y-88745438D01*
X158635154Y-89204827D01*
X158385794Y-89805353D01*
X158385226Y-90455594D01*
X154622500Y-90455594D01*
X154622500Y-85454334D01*
X158385226Y-85454334D01*
X158633538Y-86055295D01*
X159092927Y-86515486D01*
X159693453Y-86764846D01*
X160343694Y-86765414D01*
X160944655Y-86517102D01*
X161404846Y-86057713D01*
X161654206Y-85457187D01*
X161654774Y-84806946D01*
X161406462Y-84205985D01*
X160947073Y-83745794D01*
X160346547Y-83496434D01*
X159696306Y-83495866D01*
X159095345Y-83744178D01*
X158635154Y-84203567D01*
X158385794Y-84804093D01*
X158385226Y-85454334D01*
X154622500Y-85454334D01*
X154622500Y-79639086D01*
X156781269Y-79639086D01*
X156983854Y-80129380D01*
X157358647Y-80504827D01*
X157848587Y-80708268D01*
X158379086Y-80708731D01*
X158869380Y-80506146D01*
X159244827Y-80131353D01*
X159448268Y-79641413D01*
X159448270Y-79639086D01*
X161861269Y-79639086D01*
X162063854Y-80129380D01*
X162438647Y-80504827D01*
X162928587Y-80708268D01*
X163459086Y-80708731D01*
X163949380Y-80506146D01*
X164324827Y-80131353D01*
X164528268Y-79641413D01*
X164528731Y-79110914D01*
X164326146Y-78620620D01*
X163951353Y-78245173D01*
X163461413Y-78041732D01*
X162930914Y-78041269D01*
X162440620Y-78243854D01*
X162065173Y-78618647D01*
X161861732Y-79108587D01*
X161861269Y-79639086D01*
X159448270Y-79639086D01*
X159448731Y-79110914D01*
X159246146Y-78620620D01*
X158871353Y-78245173D01*
X158381413Y-78041732D01*
X157850914Y-78041269D01*
X157360620Y-78243854D01*
X156985173Y-78618647D01*
X156781732Y-79108587D01*
X156781269Y-79639086D01*
X154622500Y-79639086D01*
X154622500Y-76542953D01*
X154656372Y-76528957D01*
X155187093Y-75999161D01*
X155474672Y-75306595D01*
X155475326Y-74556695D01*
X155188957Y-73863628D01*
X154659161Y-73332907D01*
X153966595Y-73045328D01*
X153216695Y-73044674D01*
X152523628Y-73331043D01*
X151992907Y-73860839D01*
X151705328Y-74553405D01*
X151704674Y-75303305D01*
X151991043Y-75996372D01*
X152520839Y-76527093D01*
X152717500Y-76608754D01*
X152717500Y-84692534D01*
X152516462Y-84205985D01*
X152057073Y-83745794D01*
X151456547Y-83496434D01*
X150806306Y-83495866D01*
X150205345Y-83744178D01*
X149745154Y-84203567D01*
X149495794Y-84804093D01*
X149495226Y-85454334D01*
X143863380Y-85454334D01*
X143885401Y-85395058D01*
X143861341Y-84745263D01*
X143658965Y-84256682D01*
X143392163Y-84158083D01*
X142419605Y-85130640D01*
X142060395Y-85130640D01*
X141087837Y-84158083D01*
X140821035Y-84256682D01*
X140594599Y-84866222D01*
X134085000Y-84866222D01*
X134085000Y-83978477D01*
X141267443Y-83978477D01*
X142240000Y-84951035D01*
X143212557Y-83978477D01*
X143113958Y-83711675D01*
X142504418Y-83485239D01*
X141854623Y-83509299D01*
X141366042Y-83711675D01*
X141267443Y-83978477D01*
X134085000Y-83978477D01*
X134085000Y-76136500D01*
X140894060Y-76136500D01*
X140894060Y-77533500D01*
X140938338Y-77768817D01*
X141077410Y-77984941D01*
X141289610Y-78129931D01*
X141541500Y-78180940D01*
X142938500Y-78180940D01*
X143173817Y-78136662D01*
X143389941Y-77997590D01*
X143534931Y-77785390D01*
X143585940Y-77533500D01*
X143585940Y-76136500D01*
X143541662Y-75901183D01*
X143402590Y-75685059D01*
X143190390Y-75540069D01*
X142938500Y-75489060D01*
X142842116Y-75489060D01*
X142994380Y-75426146D01*
X143369827Y-75051353D01*
X143573268Y-74561413D01*
X143573731Y-74030914D01*
X143428737Y-73680000D01*
X146692560Y-73680000D01*
X146692560Y-76180000D01*
X146736838Y-76415317D01*
X146875910Y-76631441D01*
X147088110Y-76776431D01*
X147340000Y-76827440D01*
X149840000Y-76827440D01*
X150075317Y-76783162D01*
X150291441Y-76644090D01*
X150436431Y-76431890D01*
X150487440Y-76180000D01*
X150487440Y-73680000D01*
X150443162Y-73444683D01*
X150304090Y-73228559D01*
X150091890Y-73083569D01*
X149840000Y-73032560D01*
X147340000Y-73032560D01*
X147104683Y-73076838D01*
X146888559Y-73215910D01*
X146743569Y-73428110D01*
X146692560Y-73680000D01*
X143428737Y-73680000D01*
X143371146Y-73540620D01*
X142996353Y-73165173D01*
X142658554Y-73024906D01*
X142994380Y-72886146D01*
X143369827Y-72511353D01*
X143573268Y-72021413D01*
X143573270Y-72019086D01*
X156781269Y-72019086D01*
X156983854Y-72509380D01*
X157358647Y-72884827D01*
X157848587Y-73088268D01*
X158379086Y-73088731D01*
X158869380Y-72886146D01*
X159244827Y-72511353D01*
X159448268Y-72021413D01*
X159448270Y-72019086D01*
X161861269Y-72019086D01*
X162063854Y-72509380D01*
X162438647Y-72884827D01*
X162928587Y-73088268D01*
X163459086Y-73088731D01*
X163949380Y-72886146D01*
X164324827Y-72511353D01*
X164528268Y-72021413D01*
X164528731Y-71490914D01*
X164326146Y-71000620D01*
X163951353Y-70625173D01*
X163461413Y-70421732D01*
X162930914Y-70421269D01*
X162440620Y-70623854D01*
X162065173Y-70998647D01*
X161861732Y-71488587D01*
X161861269Y-72019086D01*
X159448270Y-72019086D01*
X159448731Y-71490914D01*
X159246146Y-71000620D01*
X158871353Y-70625173D01*
X158381413Y-70421732D01*
X157850914Y-70421269D01*
X157360620Y-70623854D01*
X156985173Y-70998647D01*
X156781732Y-71488587D01*
X156781269Y-72019086D01*
X143573270Y-72019086D01*
X143573731Y-71490914D01*
X143371146Y-71000620D01*
X142996353Y-70625173D01*
X142506413Y-70421732D01*
X141975914Y-70421269D01*
X141485620Y-70623854D01*
X141110173Y-70998647D01*
X140906732Y-71488587D01*
X140906269Y-72019086D01*
X141108854Y-72509380D01*
X141483647Y-72884827D01*
X141821446Y-73025094D01*
X141485620Y-73163854D01*
X141110173Y-73538647D01*
X140906732Y-74028587D01*
X140906269Y-74559086D01*
X141108854Y-75049380D01*
X141483647Y-75424827D01*
X141638337Y-75489060D01*
X141541500Y-75489060D01*
X141306183Y-75533338D01*
X141090059Y-75672410D01*
X140945069Y-75884610D01*
X140894060Y-76136500D01*
X134085000Y-76136500D01*
X134085000Y-72833672D01*
X134262709Y-73263761D01*
X135012293Y-74014655D01*
X135992173Y-74421536D01*
X137053172Y-74422462D01*
X138033761Y-74017291D01*
X138784655Y-73267707D01*
X139191536Y-72287827D01*
X139192462Y-71226828D01*
X138787291Y-70246239D01*
X138037707Y-69495345D01*
X137543180Y-69290000D01*
X167256832Y-69290000D01*
X166766239Y-69492709D01*
M02*
