G04 #@! TF.FileFunction,Legend,Top*
%FSLAX46Y46*%
G04 Gerber Fmt 4.6, Leading zero omitted, Abs format (unit mm)*
G04 Created by KiCad (PCBNEW 4.0.2-stable) date 12/06/2016 3:02:18 PM*
%MOMM*%
G01*
G04 APERTURE LIST*
%ADD10C,0.100000*%
%ADD11C,0.300000*%
%ADD12C,0.150000*%
%ADD13C,2.398980*%
%ADD14O,2.940000X2.432000*%
%ADD15O,1.299160X1.901140*%
%ADD16O,1.901140X1.299160*%
%ADD17C,1.797000*%
%ADD18C,4.464000*%
%ADD19R,2.900000X2.900000*%
%ADD20C,2.900000*%
%ADD21R,1.797000X1.797000*%
G04 APERTURE END LIST*
D10*
D11*
X169512143Y-78959286D02*
X169440714Y-79173572D01*
X169369286Y-79245000D01*
X169226429Y-79316429D01*
X169012143Y-79316429D01*
X168869286Y-79245000D01*
X168797857Y-79173572D01*
X168726429Y-79030714D01*
X168726429Y-78459286D01*
X170226429Y-78459286D01*
X170226429Y-78959286D01*
X170155000Y-79102143D01*
X170083571Y-79173572D01*
X169940714Y-79245000D01*
X169797857Y-79245000D01*
X169655000Y-79173572D01*
X169583571Y-79102143D01*
X169512143Y-78959286D01*
X169512143Y-78459286D01*
X168797857Y-80530714D02*
X168726429Y-80387857D01*
X168726429Y-80102143D01*
X168797857Y-79959286D01*
X168940714Y-79887857D01*
X169512143Y-79887857D01*
X169655000Y-79959286D01*
X169726429Y-80102143D01*
X169726429Y-80387857D01*
X169655000Y-80530714D01*
X169512143Y-80602143D01*
X169369286Y-80602143D01*
X169226429Y-79887857D01*
X168797857Y-81816428D02*
X168726429Y-81673571D01*
X168726429Y-81387857D01*
X168797857Y-81245000D01*
X168940714Y-81173571D01*
X169512143Y-81173571D01*
X169655000Y-81245000D01*
X169726429Y-81387857D01*
X169726429Y-81673571D01*
X169655000Y-81816428D01*
X169512143Y-81887857D01*
X169369286Y-81887857D01*
X169226429Y-81173571D01*
X169726429Y-82316428D02*
X169726429Y-82887857D01*
X168726429Y-82530714D02*
X170012143Y-82530714D01*
X170155000Y-82602142D01*
X170226429Y-82745000D01*
X170226429Y-82887857D01*
X169726429Y-83245000D02*
X168726429Y-83602143D01*
X169726429Y-83959285D02*
X168726429Y-83602143D01*
X168369286Y-83459285D01*
X168297857Y-83387857D01*
X168226429Y-83245000D01*
X168726429Y-85673571D02*
X170226429Y-85673571D01*
X169512143Y-85673571D02*
X169512143Y-86530714D01*
X168726429Y-86530714D02*
X170226429Y-86530714D01*
X169297857Y-87245000D02*
X169297857Y-88387857D01*
X169512143Y-89602143D02*
X169440714Y-89816429D01*
X169369286Y-89887857D01*
X169226429Y-89959286D01*
X169012143Y-89959286D01*
X168869286Y-89887857D01*
X168797857Y-89816429D01*
X168726429Y-89673571D01*
X168726429Y-89102143D01*
X170226429Y-89102143D01*
X170226429Y-89602143D01*
X170155000Y-89745000D01*
X170083571Y-89816429D01*
X169940714Y-89887857D01*
X169797857Y-89887857D01*
X169655000Y-89816429D01*
X169583571Y-89745000D01*
X169512143Y-89602143D01*
X169512143Y-89102143D01*
X168726429Y-90602143D02*
X169726429Y-90602143D01*
X169440714Y-90602143D02*
X169583571Y-90673571D01*
X169655000Y-90745000D01*
X169726429Y-90887857D01*
X169726429Y-91030714D01*
X168726429Y-91530714D02*
X169726429Y-91530714D01*
X170226429Y-91530714D02*
X170155000Y-91459285D01*
X170083571Y-91530714D01*
X170155000Y-91602142D01*
X170226429Y-91530714D01*
X170083571Y-91530714D01*
X168726429Y-92887857D02*
X170226429Y-92887857D01*
X168797857Y-92887857D02*
X168726429Y-92745000D01*
X168726429Y-92459286D01*
X168797857Y-92316428D01*
X168869286Y-92245000D01*
X169012143Y-92173571D01*
X169440714Y-92173571D01*
X169583571Y-92245000D01*
X169655000Y-92316428D01*
X169726429Y-92459286D01*
X169726429Y-92745000D01*
X169655000Y-92887857D01*
X169726429Y-94245000D02*
X168512143Y-94245000D01*
X168369286Y-94173571D01*
X168297857Y-94102143D01*
X168226429Y-93959286D01*
X168226429Y-93745000D01*
X168297857Y-93602143D01*
X168797857Y-94245000D02*
X168726429Y-94102143D01*
X168726429Y-93816429D01*
X168797857Y-93673571D01*
X168869286Y-93602143D01*
X169012143Y-93530714D01*
X169440714Y-93530714D01*
X169583571Y-93602143D01*
X169655000Y-93673571D01*
X169726429Y-93816429D01*
X169726429Y-94102143D01*
X169655000Y-94245000D01*
X168797857Y-95530714D02*
X168726429Y-95387857D01*
X168726429Y-95102143D01*
X168797857Y-94959286D01*
X168940714Y-94887857D01*
X169512143Y-94887857D01*
X169655000Y-94959286D01*
X169726429Y-95102143D01*
X169726429Y-95387857D01*
X169655000Y-95530714D01*
X169512143Y-95602143D01*
X169369286Y-95602143D01*
X169226429Y-94887857D01*
X166326429Y-82816429D02*
X167826429Y-82816429D01*
X167255000Y-82816429D02*
X167326429Y-82959286D01*
X167326429Y-83245000D01*
X167255000Y-83387857D01*
X167183571Y-83459286D01*
X167040714Y-83530715D01*
X166612143Y-83530715D01*
X166469286Y-83459286D01*
X166397857Y-83387857D01*
X166326429Y-83245000D01*
X166326429Y-82959286D01*
X166397857Y-82816429D01*
X166326429Y-84816429D02*
X167112143Y-84816429D01*
X167255000Y-84745000D01*
X167326429Y-84602143D01*
X167326429Y-84316429D01*
X167255000Y-84173572D01*
X166397857Y-84816429D02*
X166326429Y-84673572D01*
X166326429Y-84316429D01*
X166397857Y-84173572D01*
X166540714Y-84102143D01*
X166683571Y-84102143D01*
X166826429Y-84173572D01*
X166897857Y-84316429D01*
X166897857Y-84673572D01*
X166969286Y-84816429D01*
X167326429Y-85316429D02*
X167326429Y-85887858D01*
X167826429Y-85530715D02*
X166540714Y-85530715D01*
X166397857Y-85602143D01*
X166326429Y-85745001D01*
X166326429Y-85887858D01*
X166326429Y-86387858D02*
X167326429Y-86387858D01*
X167183571Y-86387858D02*
X167255000Y-86459286D01*
X167326429Y-86602144D01*
X167326429Y-86816429D01*
X167255000Y-86959286D01*
X167112143Y-87030715D01*
X166326429Y-87030715D01*
X167112143Y-87030715D02*
X167255000Y-87102144D01*
X167326429Y-87245001D01*
X167326429Y-87459286D01*
X167255000Y-87602144D01*
X167112143Y-87673572D01*
X166326429Y-87673572D01*
X166326429Y-89030715D02*
X167112143Y-89030715D01*
X167255000Y-88959286D01*
X167326429Y-88816429D01*
X167326429Y-88530715D01*
X167255000Y-88387858D01*
X166397857Y-89030715D02*
X166326429Y-88887858D01*
X166326429Y-88530715D01*
X166397857Y-88387858D01*
X166540714Y-88316429D01*
X166683571Y-88316429D01*
X166826429Y-88387858D01*
X166897857Y-88530715D01*
X166897857Y-88887858D01*
X166969286Y-89030715D01*
X166326429Y-89745001D02*
X167326429Y-89745001D01*
X167040714Y-89745001D02*
X167183571Y-89816429D01*
X167255000Y-89887858D01*
X167326429Y-90030715D01*
X167326429Y-90173572D01*
X166326429Y-90673572D02*
X167826429Y-90673572D01*
X166897857Y-90816429D02*
X166326429Y-91245000D01*
X167326429Y-91245000D02*
X166755000Y-90673572D01*
X165283571Y-84423572D02*
X165355000Y-84495001D01*
X165426429Y-84637858D01*
X165426429Y-84995001D01*
X165355000Y-85137858D01*
X165283571Y-85209287D01*
X165140714Y-85280715D01*
X164997857Y-85280715D01*
X164783571Y-85209287D01*
X163926429Y-84352144D01*
X163926429Y-85280715D01*
X165426429Y-86209286D02*
X165426429Y-86352143D01*
X165355000Y-86495000D01*
X165283571Y-86566429D01*
X165140714Y-86637858D01*
X164855000Y-86709286D01*
X164497857Y-86709286D01*
X164212143Y-86637858D01*
X164069286Y-86566429D01*
X163997857Y-86495000D01*
X163926429Y-86352143D01*
X163926429Y-86209286D01*
X163997857Y-86066429D01*
X164069286Y-85995000D01*
X164212143Y-85923572D01*
X164497857Y-85852143D01*
X164855000Y-85852143D01*
X165140714Y-85923572D01*
X165283571Y-85995000D01*
X165355000Y-86066429D01*
X165426429Y-86209286D01*
X163926429Y-88137857D02*
X163926429Y-87280714D01*
X163926429Y-87709286D02*
X165426429Y-87709286D01*
X165212143Y-87566429D01*
X165069286Y-87423571D01*
X164997857Y-87280714D01*
X165426429Y-89423571D02*
X165426429Y-89137857D01*
X165355000Y-88995000D01*
X165283571Y-88923571D01*
X165069286Y-88780714D01*
X164783571Y-88709285D01*
X164212143Y-88709285D01*
X164069286Y-88780714D01*
X163997857Y-88852142D01*
X163926429Y-88995000D01*
X163926429Y-89280714D01*
X163997857Y-89423571D01*
X164069286Y-89495000D01*
X164212143Y-89566428D01*
X164569286Y-89566428D01*
X164712143Y-89495000D01*
X164783571Y-89423571D01*
X164855000Y-89280714D01*
X164855000Y-88995000D01*
X164783571Y-88852142D01*
X164712143Y-88780714D01*
X164569286Y-88709285D01*
X147090000Y-81958571D02*
X147090000Y-80458571D01*
X147447143Y-80458571D01*
X147661428Y-80530000D01*
X147804286Y-80672857D01*
X147875714Y-80815714D01*
X147947143Y-81101429D01*
X147947143Y-81315714D01*
X147875714Y-81601429D01*
X147804286Y-81744286D01*
X147661428Y-81887143D01*
X147447143Y-81958571D01*
X147090000Y-81958571D01*
X148590000Y-81958571D02*
X148590000Y-80458571D01*
X150161429Y-81958571D02*
X149661429Y-81244286D01*
X149304286Y-81958571D02*
X149304286Y-80458571D01*
X149875714Y-80458571D01*
X150018572Y-80530000D01*
X150090000Y-80601429D01*
X150161429Y-80744286D01*
X150161429Y-80958571D01*
X150090000Y-81101429D01*
X150018572Y-81172857D01*
X149875714Y-81244286D01*
X149304286Y-81244286D01*
X152562857Y-81172857D02*
X153062857Y-81172857D01*
X153277143Y-81958571D02*
X152562857Y-81958571D01*
X152562857Y-80458571D01*
X153277143Y-80458571D01*
X153920000Y-81958571D02*
X153920000Y-80458571D01*
X154777143Y-81958571D01*
X154777143Y-80458571D01*
X158591429Y-121733571D02*
X159091429Y-123233571D01*
X159591429Y-121733571D01*
X160091429Y-122662143D02*
X161234286Y-122662143D01*
X160662857Y-123233571D02*
X160662857Y-122090714D01*
X155332857Y-121805000D02*
X155190000Y-121733571D01*
X154975714Y-121733571D01*
X154761429Y-121805000D01*
X154618571Y-121947857D01*
X154547143Y-122090714D01*
X154475714Y-122376429D01*
X154475714Y-122590714D01*
X154547143Y-122876429D01*
X154618571Y-123019286D01*
X154761429Y-123162143D01*
X154975714Y-123233571D01*
X155118571Y-123233571D01*
X155332857Y-123162143D01*
X155404286Y-123090714D01*
X155404286Y-122590714D01*
X155118571Y-122590714D01*
X143565715Y-123233571D02*
X143565715Y-121733571D01*
X144065715Y-122805000D01*
X144565715Y-121733571D01*
X144565715Y-123233571D01*
X145208572Y-121876429D02*
X145280001Y-121805000D01*
X145422858Y-121733571D01*
X145780001Y-121733571D01*
X145922858Y-121805000D01*
X145994287Y-121876429D01*
X146065715Y-122019286D01*
X146065715Y-122162143D01*
X145994287Y-122376429D01*
X145137144Y-123233571D01*
X146065715Y-123233571D01*
X148645715Y-123233571D02*
X148645715Y-121733571D01*
X149145715Y-122805000D01*
X149645715Y-121733571D01*
X149645715Y-123233571D01*
X151145715Y-123233571D02*
X150288572Y-123233571D01*
X150717144Y-123233571D02*
X150717144Y-121733571D01*
X150574287Y-121947857D01*
X150431429Y-122090714D01*
X150288572Y-122162143D01*
D12*
X148590000Y-106580940D02*
X148590000Y-107581700D01*
X151089360Y-104180640D02*
G75*
G03X151089360Y-104180640I-2499360J0D01*
G01*
X153670000Y-106580940D02*
X153670000Y-107581700D01*
X156169360Y-104180640D02*
G75*
G03X156169360Y-104180640I-2499360J0D01*
G01*
X154051000Y-120396000D02*
X150622000Y-120396000D01*
X154051000Y-110744000D02*
X150622000Y-110744000D01*
X155194000Y-120904000D02*
X155194000Y-110236000D01*
X154178000Y-117348000D02*
X155448000Y-117348000D01*
X154178000Y-113792000D02*
X155448000Y-113792000D01*
X154051000Y-110236000D02*
X154051000Y-120904000D01*
X150622000Y-120904000D02*
X150622000Y-110236000D01*
X155448000Y-110236000D02*
X150622000Y-110236000D01*
X155448000Y-120904000D02*
X150622000Y-120904000D01*
X155448000Y-120904000D02*
X155448000Y-110236000D01*
X169291000Y-120396000D02*
X165862000Y-120396000D01*
X169291000Y-110744000D02*
X165862000Y-110744000D01*
X170434000Y-120904000D02*
X170434000Y-110236000D01*
X169418000Y-117348000D02*
X170688000Y-117348000D01*
X169418000Y-113792000D02*
X170688000Y-113792000D01*
X169291000Y-110236000D02*
X169291000Y-120904000D01*
X165862000Y-120904000D02*
X165862000Y-110236000D01*
X170688000Y-110236000D02*
X165862000Y-110236000D01*
X170688000Y-120904000D02*
X165862000Y-120904000D01*
X170688000Y-120904000D02*
X170688000Y-110236000D01*
X143940000Y-92280000D02*
X140540000Y-92280000D01*
X143937056Y-92282944D02*
G75*
G02X142240000Y-96380000I-1697056J-1697056D01*
G01*
X140542944Y-92282944D02*
G75*
G03X142240000Y-96380000I1697056J-1697056D01*
G01*
X158320000Y-99900000D02*
X158320000Y-103300000D01*
X158322944Y-99902944D02*
G75*
G02X162420000Y-101600000I1697056J-1697056D01*
G01*
X158322944Y-103297056D02*
G75*
G03X162420000Y-101600000I1697056J1697056D01*
G01*
X161671000Y-120396000D02*
X158242000Y-120396000D01*
X161671000Y-110744000D02*
X158242000Y-110744000D01*
X162814000Y-120904000D02*
X162814000Y-110236000D01*
X161798000Y-117348000D02*
X163068000Y-117348000D01*
X161798000Y-113792000D02*
X163068000Y-113792000D01*
X161671000Y-110236000D02*
X161671000Y-120904000D01*
X158242000Y-120904000D02*
X158242000Y-110236000D01*
X163068000Y-110236000D02*
X158242000Y-110236000D01*
X163068000Y-120904000D02*
X158242000Y-120904000D01*
X163068000Y-120904000D02*
X163068000Y-110236000D01*
X138176000Y-120396000D02*
X134747000Y-120396000D01*
X138176000Y-110744000D02*
X134747000Y-110744000D01*
X139319000Y-120904000D02*
X139319000Y-110236000D01*
X138303000Y-117348000D02*
X139573000Y-117348000D01*
X138303000Y-113792000D02*
X139573000Y-113792000D01*
X138176000Y-110236000D02*
X138176000Y-120904000D01*
X134747000Y-120904000D02*
X134747000Y-110236000D01*
X139573000Y-110236000D02*
X134747000Y-110236000D01*
X139573000Y-120904000D02*
X134747000Y-120904000D01*
X139573000Y-120904000D02*
X139573000Y-110236000D01*
X145796000Y-120396000D02*
X142367000Y-120396000D01*
X145796000Y-110744000D02*
X142367000Y-110744000D01*
X146939000Y-120904000D02*
X146939000Y-110236000D01*
X145923000Y-117348000D02*
X147193000Y-117348000D01*
X145923000Y-113792000D02*
X147193000Y-113792000D01*
X145796000Y-110236000D02*
X145796000Y-120904000D01*
X142367000Y-120904000D02*
X142367000Y-110236000D01*
X147193000Y-110236000D02*
X142367000Y-110236000D01*
X147193000Y-120904000D02*
X142367000Y-120904000D01*
X147193000Y-120904000D02*
X147193000Y-110236000D01*
X140540000Y-99900000D02*
X140540000Y-103300000D01*
X140542944Y-99902944D02*
G75*
G02X144640000Y-101600000I1697056J-1697056D01*
G01*
X140542944Y-103297056D02*
G75*
G03X144640000Y-101600000I1697056J1697056D01*
G01*
X151130000Y-87530940D02*
X151130000Y-88531700D01*
X153629360Y-85130640D02*
G75*
G03X153629360Y-85130640I-2499360J0D01*
G01*
X142240000Y-87530940D02*
X142240000Y-88531700D01*
X144739360Y-85130640D02*
G75*
G03X144739360Y-85130640I-2499360J0D01*
G01*
X162460940Y-93980000D02*
X163461700Y-93980000D01*
X162560000Y-93980000D02*
G75*
G03X162560000Y-93980000I-2499360J0D01*
G01*
X160020000Y-87530940D02*
X160020000Y-88531700D01*
X162519360Y-85130640D02*
G75*
G03X162519360Y-85130640I-2499360J0D01*
G01*
X162659060Y-107950000D02*
X161658300Y-107950000D01*
X167558720Y-107950000D02*
G75*
G03X167558720Y-107950000I-2499360J0D01*
G01*
X139600940Y-107950000D02*
X140601700Y-107950000D01*
X139700000Y-107950000D02*
G75*
G03X139700000Y-107950000I-2499360J0D01*
G01*
X148590000Y-96420940D02*
X148590000Y-97421700D01*
X151089360Y-94020640D02*
G75*
G03X151089360Y-94020640I-2499360J0D01*
G01*
X163195000Y-75565000D02*
G75*
G03X163195000Y-75565000I-2540000J0D01*
G01*
X164465000Y-71755000D02*
X164465000Y-79375000D01*
X164465000Y-79375000D02*
X156845000Y-79375000D01*
X156845000Y-79375000D02*
X156845000Y-71755000D01*
X164465000Y-71755000D02*
X156845000Y-71755000D01*
X170561000Y-71755000D02*
G75*
G03X170561000Y-71755000I-2286000J0D01*
G01*
X138811000Y-71755000D02*
G75*
G03X138811000Y-71755000I-2286000J0D01*
G01*
X138811000Y-131445000D02*
G75*
G03X138811000Y-131445000I-2286000J0D01*
G01*
X170561000Y-131445000D02*
G75*
G03X170561000Y-131445000I-2286000J0D01*
G01*
X151090000Y-79030000D02*
X151090000Y-79530000D01*
X155590000Y-75030000D02*
G75*
G03X155590000Y-75030000I-2000000J0D01*
G01*
X150590000Y-75030000D02*
G75*
G03X150590000Y-75030000I-2000000J0D01*
G01*
X146090000Y-77530000D02*
X156090000Y-77530000D01*
X146090000Y-72630000D02*
X156090000Y-72630000D01*
X146090000Y-79030000D02*
X156090000Y-79030000D01*
X146090000Y-79530000D02*
X156090000Y-79530000D01*
X156090000Y-79530000D02*
X156090000Y-69730000D01*
X156090000Y-69730000D02*
X146090000Y-69730000D01*
X146090000Y-69730000D02*
X146090000Y-79530000D01*
X147360000Y-124170000D02*
X147360000Y-123670000D01*
X146860000Y-128170000D02*
G75*
G03X146860000Y-128170000I-2000000J0D01*
G01*
X151860000Y-128170000D02*
G75*
G03X151860000Y-128170000I-2000000J0D01*
G01*
X152360000Y-125670000D02*
X142360000Y-125670000D01*
X152360000Y-130570000D02*
X142360000Y-130570000D01*
X152360000Y-124170000D02*
X142360000Y-124170000D01*
X152360000Y-123670000D02*
X142360000Y-123670000D01*
X142360000Y-123670000D02*
X142360000Y-133470000D01*
X142360000Y-133470000D02*
X152360000Y-133470000D01*
X152360000Y-133470000D02*
X152360000Y-123670000D01*
X157520000Y-124170000D02*
X157520000Y-123670000D01*
X157020000Y-128170000D02*
G75*
G03X157020000Y-128170000I-2000000J0D01*
G01*
X162020000Y-128170000D02*
G75*
G03X162020000Y-128170000I-2000000J0D01*
G01*
X162520000Y-125670000D02*
X152520000Y-125670000D01*
X162520000Y-130570000D02*
X152520000Y-130570000D01*
X162520000Y-124170000D02*
X152520000Y-124170000D01*
X162520000Y-123670000D02*
X152520000Y-123670000D01*
X152520000Y-123670000D02*
X152520000Y-133470000D01*
X152520000Y-133470000D02*
X162520000Y-133470000D01*
X162520000Y-133470000D02*
X162520000Y-123670000D01*
X143510000Y-78105000D02*
X140970000Y-78105000D01*
X140970000Y-78105000D02*
X140970000Y-70485000D01*
X140970000Y-70485000D02*
X143510000Y-70485000D01*
X143510000Y-70485000D02*
X143510000Y-78105000D01*
X140970000Y-75565000D02*
X143510000Y-75565000D01*
X146518334Y-107767381D02*
X146185000Y-107291190D01*
X145946905Y-107767381D02*
X145946905Y-106767381D01*
X146327858Y-106767381D01*
X146423096Y-106815000D01*
X146470715Y-106862619D01*
X146518334Y-106957857D01*
X146518334Y-107100714D01*
X146470715Y-107195952D01*
X146423096Y-107243571D01*
X146327858Y-107291190D01*
X145946905Y-107291190D01*
X146851667Y-106767381D02*
X147518334Y-106767381D01*
X147089762Y-107767381D01*
X155408334Y-107767381D02*
X155075000Y-107291190D01*
X154836905Y-107767381D02*
X154836905Y-106767381D01*
X155217858Y-106767381D01*
X155313096Y-106815000D01*
X155360715Y-106862619D01*
X155408334Y-106957857D01*
X155408334Y-107100714D01*
X155360715Y-107195952D01*
X155313096Y-107243571D01*
X155217858Y-107291190D01*
X154836905Y-107291190D01*
X156265477Y-106767381D02*
X156075000Y-106767381D01*
X155979762Y-106815000D01*
X155932143Y-106862619D01*
X155836905Y-107005476D01*
X155789286Y-107195952D01*
X155789286Y-107576905D01*
X155836905Y-107672143D01*
X155884524Y-107719762D01*
X155979762Y-107767381D01*
X156170239Y-107767381D01*
X156265477Y-107719762D01*
X156313096Y-107672143D01*
X156360715Y-107576905D01*
X156360715Y-107338810D01*
X156313096Y-107243571D01*
X156265477Y-107195952D01*
X156170239Y-107148333D01*
X155979762Y-107148333D01*
X155884524Y-107195952D01*
X155836905Y-107243571D01*
X155789286Y-107338810D01*
X150407619Y-112490238D02*
X150360000Y-112585476D01*
X150264762Y-112680714D01*
X150121905Y-112823571D01*
X150074286Y-112918810D01*
X150074286Y-113014048D01*
X150312381Y-112966429D02*
X150264762Y-113061667D01*
X150169524Y-113156905D01*
X149979048Y-113204524D01*
X149645714Y-113204524D01*
X149455238Y-113156905D01*
X149360000Y-113061667D01*
X149312381Y-112966429D01*
X149312381Y-112775952D01*
X149360000Y-112680714D01*
X149455238Y-112585476D01*
X149645714Y-112537857D01*
X149979048Y-112537857D01*
X150169524Y-112585476D01*
X150264762Y-112680714D01*
X150312381Y-112775952D01*
X150312381Y-112966429D01*
X149312381Y-111633095D02*
X149312381Y-112109286D01*
X149788571Y-112156905D01*
X149740952Y-112109286D01*
X149693333Y-112014048D01*
X149693333Y-111775952D01*
X149740952Y-111680714D01*
X149788571Y-111633095D01*
X149883810Y-111585476D01*
X150121905Y-111585476D01*
X150217143Y-111633095D01*
X150264762Y-111680714D01*
X150312381Y-111775952D01*
X150312381Y-112014048D01*
X150264762Y-112109286D01*
X150217143Y-112156905D01*
X171997619Y-115665238D02*
X171950000Y-115760476D01*
X171854762Y-115855714D01*
X171711905Y-115998571D01*
X171664286Y-116093810D01*
X171664286Y-116189048D01*
X171902381Y-116141429D02*
X171854762Y-116236667D01*
X171759524Y-116331905D01*
X171569048Y-116379524D01*
X171235714Y-116379524D01*
X171045238Y-116331905D01*
X170950000Y-116236667D01*
X170902381Y-116141429D01*
X170902381Y-115950952D01*
X170950000Y-115855714D01*
X171045238Y-115760476D01*
X171235714Y-115712857D01*
X171569048Y-115712857D01*
X171759524Y-115760476D01*
X171854762Y-115855714D01*
X171902381Y-115950952D01*
X171902381Y-116141429D01*
X170902381Y-115379524D02*
X170902381Y-114760476D01*
X171283333Y-115093810D01*
X171283333Y-114950952D01*
X171330952Y-114855714D01*
X171378571Y-114808095D01*
X171473810Y-114760476D01*
X171711905Y-114760476D01*
X171807143Y-114808095D01*
X171854762Y-114855714D01*
X171902381Y-114950952D01*
X171902381Y-115236667D01*
X171854762Y-115331905D01*
X171807143Y-115379524D01*
X138334762Y-94527619D02*
X138239524Y-94480000D01*
X138144286Y-94384762D01*
X138001429Y-94241905D01*
X137906190Y-94194286D01*
X137810952Y-94194286D01*
X137858571Y-94432381D02*
X137763333Y-94384762D01*
X137668095Y-94289524D01*
X137620476Y-94099048D01*
X137620476Y-93765714D01*
X137668095Y-93575238D01*
X137763333Y-93480000D01*
X137858571Y-93432381D01*
X138049048Y-93432381D01*
X138144286Y-93480000D01*
X138239524Y-93575238D01*
X138287143Y-93765714D01*
X138287143Y-94099048D01*
X138239524Y-94289524D01*
X138144286Y-94384762D01*
X138049048Y-94432381D01*
X137858571Y-94432381D01*
X139239524Y-94432381D02*
X138668095Y-94432381D01*
X138953809Y-94432381D02*
X138953809Y-93432381D01*
X138858571Y-93575238D01*
X138763333Y-93670476D01*
X138668095Y-93718095D01*
X158027619Y-101695238D02*
X157980000Y-101790476D01*
X157884762Y-101885714D01*
X157741905Y-102028571D01*
X157694286Y-102123810D01*
X157694286Y-102219048D01*
X157932381Y-102171429D02*
X157884762Y-102266667D01*
X157789524Y-102361905D01*
X157599048Y-102409524D01*
X157265714Y-102409524D01*
X157075238Y-102361905D01*
X156980000Y-102266667D01*
X156932381Y-102171429D01*
X156932381Y-101980952D01*
X156980000Y-101885714D01*
X157075238Y-101790476D01*
X157265714Y-101742857D01*
X157599048Y-101742857D01*
X157789524Y-101790476D01*
X157884762Y-101885714D01*
X157932381Y-101980952D01*
X157932381Y-102171429D01*
X157027619Y-101361905D02*
X156980000Y-101314286D01*
X156932381Y-101219048D01*
X156932381Y-100980952D01*
X156980000Y-100885714D01*
X157027619Y-100838095D01*
X157122857Y-100790476D01*
X157218095Y-100790476D01*
X157360952Y-100838095D01*
X157932381Y-101409524D01*
X157932381Y-100790476D01*
X158027619Y-115665238D02*
X157980000Y-115760476D01*
X157884762Y-115855714D01*
X157741905Y-115998571D01*
X157694286Y-116093810D01*
X157694286Y-116189048D01*
X157932381Y-116141429D02*
X157884762Y-116236667D01*
X157789524Y-116331905D01*
X157599048Y-116379524D01*
X157265714Y-116379524D01*
X157075238Y-116331905D01*
X156980000Y-116236667D01*
X156932381Y-116141429D01*
X156932381Y-115950952D01*
X156980000Y-115855714D01*
X157075238Y-115760476D01*
X157265714Y-115712857D01*
X157599048Y-115712857D01*
X157789524Y-115760476D01*
X157884762Y-115855714D01*
X157932381Y-115950952D01*
X157932381Y-116141429D01*
X157265714Y-114855714D02*
X157932381Y-114855714D01*
X156884762Y-115093810D02*
X157599048Y-115331905D01*
X157599048Y-114712857D01*
X134532619Y-115665238D02*
X134485000Y-115760476D01*
X134389762Y-115855714D01*
X134246905Y-115998571D01*
X134199286Y-116093810D01*
X134199286Y-116189048D01*
X134437381Y-116141429D02*
X134389762Y-116236667D01*
X134294524Y-116331905D01*
X134104048Y-116379524D01*
X133770714Y-116379524D01*
X133580238Y-116331905D01*
X133485000Y-116236667D01*
X133437381Y-116141429D01*
X133437381Y-115950952D01*
X133485000Y-115855714D01*
X133580238Y-115760476D01*
X133770714Y-115712857D01*
X134104048Y-115712857D01*
X134294524Y-115760476D01*
X134389762Y-115855714D01*
X134437381Y-115950952D01*
X134437381Y-116141429D01*
X133437381Y-114855714D02*
X133437381Y-115046191D01*
X133485000Y-115141429D01*
X133532619Y-115189048D01*
X133675476Y-115284286D01*
X133865952Y-115331905D01*
X134246905Y-115331905D01*
X134342143Y-115284286D01*
X134389762Y-115236667D01*
X134437381Y-115141429D01*
X134437381Y-114950952D01*
X134389762Y-114855714D01*
X134342143Y-114808095D01*
X134246905Y-114760476D01*
X134008810Y-114760476D01*
X133913571Y-114808095D01*
X133865952Y-114855714D01*
X133818333Y-114950952D01*
X133818333Y-115141429D01*
X133865952Y-115236667D01*
X133913571Y-115284286D01*
X134008810Y-115331905D01*
X148502619Y-115665238D02*
X148455000Y-115760476D01*
X148359762Y-115855714D01*
X148216905Y-115998571D01*
X148169286Y-116093810D01*
X148169286Y-116189048D01*
X148407381Y-116141429D02*
X148359762Y-116236667D01*
X148264524Y-116331905D01*
X148074048Y-116379524D01*
X147740714Y-116379524D01*
X147550238Y-116331905D01*
X147455000Y-116236667D01*
X147407381Y-116141429D01*
X147407381Y-115950952D01*
X147455000Y-115855714D01*
X147550238Y-115760476D01*
X147740714Y-115712857D01*
X148074048Y-115712857D01*
X148264524Y-115760476D01*
X148359762Y-115855714D01*
X148407381Y-115950952D01*
X148407381Y-116141429D01*
X147407381Y-115379524D02*
X147407381Y-114712857D01*
X148407381Y-115141429D01*
X140247619Y-101695238D02*
X140200000Y-101790476D01*
X140104762Y-101885714D01*
X139961905Y-102028571D01*
X139914286Y-102123810D01*
X139914286Y-102219048D01*
X140152381Y-102171429D02*
X140104762Y-102266667D01*
X140009524Y-102361905D01*
X139819048Y-102409524D01*
X139485714Y-102409524D01*
X139295238Y-102361905D01*
X139200000Y-102266667D01*
X139152381Y-102171429D01*
X139152381Y-101980952D01*
X139200000Y-101885714D01*
X139295238Y-101790476D01*
X139485714Y-101742857D01*
X139819048Y-101742857D01*
X140009524Y-101790476D01*
X140104762Y-101885714D01*
X140152381Y-101980952D01*
X140152381Y-102171429D01*
X139580952Y-101171429D02*
X139533333Y-101266667D01*
X139485714Y-101314286D01*
X139390476Y-101361905D01*
X139342857Y-101361905D01*
X139247619Y-101314286D01*
X139200000Y-101266667D01*
X139152381Y-101171429D01*
X139152381Y-100980952D01*
X139200000Y-100885714D01*
X139247619Y-100838095D01*
X139342857Y-100790476D01*
X139390476Y-100790476D01*
X139485714Y-100838095D01*
X139533333Y-100885714D01*
X139580952Y-100980952D01*
X139580952Y-101171429D01*
X139628571Y-101266667D01*
X139676190Y-101314286D01*
X139771429Y-101361905D01*
X139961905Y-101361905D01*
X140057143Y-101314286D01*
X140104762Y-101266667D01*
X140152381Y-101171429D01*
X140152381Y-100980952D01*
X140104762Y-100885714D01*
X140057143Y-100838095D01*
X139961905Y-100790476D01*
X139771429Y-100790476D01*
X139676190Y-100838095D01*
X139628571Y-100885714D01*
X139580952Y-100980952D01*
X149058334Y-88717381D02*
X148725000Y-88241190D01*
X148486905Y-88717381D02*
X148486905Y-87717381D01*
X148867858Y-87717381D01*
X148963096Y-87765000D01*
X149010715Y-87812619D01*
X149058334Y-87907857D01*
X149058334Y-88050714D01*
X149010715Y-88145952D01*
X148963096Y-88193571D01*
X148867858Y-88241190D01*
X148486905Y-88241190D01*
X150010715Y-88717381D02*
X149439286Y-88717381D01*
X149725000Y-88717381D02*
X149725000Y-87717381D01*
X149629762Y-87860238D01*
X149534524Y-87955476D01*
X149439286Y-88003095D01*
X139533334Y-88717381D02*
X139200000Y-88241190D01*
X138961905Y-88717381D02*
X138961905Y-87717381D01*
X139342858Y-87717381D01*
X139438096Y-87765000D01*
X139485715Y-87812619D01*
X139533334Y-87907857D01*
X139533334Y-88050714D01*
X139485715Y-88145952D01*
X139438096Y-88193571D01*
X139342858Y-88241190D01*
X138961905Y-88241190D01*
X139914286Y-87812619D02*
X139961905Y-87765000D01*
X140057143Y-87717381D01*
X140295239Y-87717381D01*
X140390477Y-87765000D01*
X140438096Y-87812619D01*
X140485715Y-87907857D01*
X140485715Y-88003095D01*
X140438096Y-88145952D01*
X139866667Y-88717381D01*
X140485715Y-88717381D01*
X163028334Y-96972381D02*
X162695000Y-96496190D01*
X162456905Y-96972381D02*
X162456905Y-95972381D01*
X162837858Y-95972381D01*
X162933096Y-96020000D01*
X162980715Y-96067619D01*
X163028334Y-96162857D01*
X163028334Y-96305714D01*
X162980715Y-96400952D01*
X162933096Y-96448571D01*
X162837858Y-96496190D01*
X162456905Y-96496190D01*
X163361667Y-95972381D02*
X163980715Y-95972381D01*
X163647381Y-96353333D01*
X163790239Y-96353333D01*
X163885477Y-96400952D01*
X163933096Y-96448571D01*
X163980715Y-96543810D01*
X163980715Y-96781905D01*
X163933096Y-96877143D01*
X163885477Y-96924762D01*
X163790239Y-96972381D01*
X163504524Y-96972381D01*
X163409286Y-96924762D01*
X163361667Y-96877143D01*
X157948334Y-88717381D02*
X157615000Y-88241190D01*
X157376905Y-88717381D02*
X157376905Y-87717381D01*
X157757858Y-87717381D01*
X157853096Y-87765000D01*
X157900715Y-87812619D01*
X157948334Y-87907857D01*
X157948334Y-88050714D01*
X157900715Y-88145952D01*
X157853096Y-88193571D01*
X157757858Y-88241190D01*
X157376905Y-88241190D01*
X158805477Y-88050714D02*
X158805477Y-88717381D01*
X158567381Y-87669762D02*
X158329286Y-88384048D01*
X158948334Y-88384048D01*
X161758334Y-106497381D02*
X161425000Y-106021190D01*
X161186905Y-106497381D02*
X161186905Y-105497381D01*
X161567858Y-105497381D01*
X161663096Y-105545000D01*
X161710715Y-105592619D01*
X161758334Y-105687857D01*
X161758334Y-105830714D01*
X161710715Y-105925952D01*
X161663096Y-105973571D01*
X161567858Y-106021190D01*
X161186905Y-106021190D01*
X162663096Y-105497381D02*
X162186905Y-105497381D01*
X162139286Y-105973571D01*
X162186905Y-105925952D01*
X162282143Y-105878333D01*
X162520239Y-105878333D01*
X162615477Y-105925952D01*
X162663096Y-105973571D01*
X162710715Y-106068810D01*
X162710715Y-106306905D01*
X162663096Y-106402143D01*
X162615477Y-106449762D01*
X162520239Y-106497381D01*
X162282143Y-106497381D01*
X162186905Y-106449762D01*
X162139286Y-106402143D01*
X140803334Y-106497381D02*
X140470000Y-106021190D01*
X140231905Y-106497381D02*
X140231905Y-105497381D01*
X140612858Y-105497381D01*
X140708096Y-105545000D01*
X140755715Y-105592619D01*
X140803334Y-105687857D01*
X140803334Y-105830714D01*
X140755715Y-105925952D01*
X140708096Y-105973571D01*
X140612858Y-106021190D01*
X140231905Y-106021190D01*
X141374762Y-105925952D02*
X141279524Y-105878333D01*
X141231905Y-105830714D01*
X141184286Y-105735476D01*
X141184286Y-105687857D01*
X141231905Y-105592619D01*
X141279524Y-105545000D01*
X141374762Y-105497381D01*
X141565239Y-105497381D01*
X141660477Y-105545000D01*
X141708096Y-105592619D01*
X141755715Y-105687857D01*
X141755715Y-105735476D01*
X141708096Y-105830714D01*
X141660477Y-105878333D01*
X141565239Y-105925952D01*
X141374762Y-105925952D01*
X141279524Y-105973571D01*
X141231905Y-106021190D01*
X141184286Y-106116429D01*
X141184286Y-106306905D01*
X141231905Y-106402143D01*
X141279524Y-106449762D01*
X141374762Y-106497381D01*
X141565239Y-106497381D01*
X141660477Y-106449762D01*
X141708096Y-106402143D01*
X141755715Y-106306905D01*
X141755715Y-106116429D01*
X141708096Y-106021190D01*
X141660477Y-105973571D01*
X141565239Y-105925952D01*
X146518334Y-97607381D02*
X146185000Y-97131190D01*
X145946905Y-97607381D02*
X145946905Y-96607381D01*
X146327858Y-96607381D01*
X146423096Y-96655000D01*
X146470715Y-96702619D01*
X146518334Y-96797857D01*
X146518334Y-96940714D01*
X146470715Y-97035952D01*
X146423096Y-97083571D01*
X146327858Y-97131190D01*
X145946905Y-97131190D01*
X146994524Y-97607381D02*
X147185000Y-97607381D01*
X147280239Y-97559762D01*
X147327858Y-97512143D01*
X147423096Y-97369286D01*
X147470715Y-97178810D01*
X147470715Y-96797857D01*
X147423096Y-96702619D01*
X147375477Y-96655000D01*
X147280239Y-96607381D01*
X147089762Y-96607381D01*
X146994524Y-96655000D01*
X146946905Y-96702619D01*
X146899286Y-96797857D01*
X146899286Y-97035952D01*
X146946905Y-97131190D01*
X146994524Y-97178810D01*
X147089762Y-97226429D01*
X147280239Y-97226429D01*
X147375477Y-97178810D01*
X147423096Y-97131190D01*
X147470715Y-97035952D01*
X166139762Y-76898333D02*
X166187381Y-76755476D01*
X166187381Y-76517380D01*
X166139762Y-76422142D01*
X166092143Y-76374523D01*
X165996905Y-76326904D01*
X165901667Y-76326904D01*
X165806429Y-76374523D01*
X165758810Y-76422142D01*
X165711190Y-76517380D01*
X165663571Y-76707857D01*
X165615952Y-76803095D01*
X165568333Y-76850714D01*
X165473095Y-76898333D01*
X165377857Y-76898333D01*
X165282619Y-76850714D01*
X165235000Y-76803095D01*
X165187381Y-76707857D01*
X165187381Y-76469761D01*
X165235000Y-76326904D01*
X165187381Y-75993571D02*
X166187381Y-75755476D01*
X165473095Y-75564999D01*
X166187381Y-75374523D01*
X165187381Y-75136428D01*
X166187381Y-74231666D02*
X166187381Y-74803095D01*
X166187381Y-74517381D02*
X165187381Y-74517381D01*
X165330238Y-74612619D01*
X165425476Y-74707857D01*
X165473095Y-74803095D01*
X156741905Y-70302381D02*
X156741905Y-69302381D01*
X157122858Y-69302381D01*
X157218096Y-69350000D01*
X157265715Y-69397619D01*
X157313334Y-69492857D01*
X157313334Y-69635714D01*
X157265715Y-69730952D01*
X157218096Y-69778571D01*
X157122858Y-69826190D01*
X156741905Y-69826190D01*
X158265715Y-70302381D02*
X157694286Y-70302381D01*
X157980000Y-70302381D02*
X157980000Y-69302381D01*
X157884762Y-69445238D01*
X157789524Y-69540476D01*
X157694286Y-69588095D01*
X140231905Y-128722381D02*
X140231905Y-127722381D01*
X140612858Y-127722381D01*
X140708096Y-127770000D01*
X140755715Y-127817619D01*
X140803334Y-127912857D01*
X140803334Y-128055714D01*
X140755715Y-128150952D01*
X140708096Y-128198571D01*
X140612858Y-128246190D01*
X140231905Y-128246190D01*
X141184286Y-127817619D02*
X141231905Y-127770000D01*
X141327143Y-127722381D01*
X141565239Y-127722381D01*
X141660477Y-127770000D01*
X141708096Y-127817619D01*
X141755715Y-127912857D01*
X141755715Y-128008095D01*
X141708096Y-128150952D01*
X141136667Y-128722381D01*
X141755715Y-128722381D01*
X163091905Y-128722381D02*
X163091905Y-127722381D01*
X163472858Y-127722381D01*
X163568096Y-127770000D01*
X163615715Y-127817619D01*
X163663334Y-127912857D01*
X163663334Y-128055714D01*
X163615715Y-128150952D01*
X163568096Y-128198571D01*
X163472858Y-128246190D01*
X163091905Y-128246190D01*
X163996667Y-127722381D02*
X164615715Y-127722381D01*
X164282381Y-128103333D01*
X164425239Y-128103333D01*
X164520477Y-128150952D01*
X164568096Y-128198571D01*
X164615715Y-128293810D01*
X164615715Y-128531905D01*
X164568096Y-128627143D01*
X164520477Y-128674762D01*
X164425239Y-128722381D01*
X164139524Y-128722381D01*
X164044286Y-128674762D01*
X163996667Y-128627143D01*
X140104762Y-75628333D02*
X140152381Y-75485476D01*
X140152381Y-75247380D01*
X140104762Y-75152142D01*
X140057143Y-75104523D01*
X139961905Y-75056904D01*
X139866667Y-75056904D01*
X139771429Y-75104523D01*
X139723810Y-75152142D01*
X139676190Y-75247380D01*
X139628571Y-75437857D01*
X139580952Y-75533095D01*
X139533333Y-75580714D01*
X139438095Y-75628333D01*
X139342857Y-75628333D01*
X139247619Y-75580714D01*
X139200000Y-75533095D01*
X139152381Y-75437857D01*
X139152381Y-75199761D01*
X139200000Y-75056904D01*
X139152381Y-74723571D02*
X140152381Y-74485476D01*
X139438095Y-74294999D01*
X140152381Y-74104523D01*
X139152381Y-73866428D01*
X139247619Y-73533095D02*
X139200000Y-73485476D01*
X139152381Y-73390238D01*
X139152381Y-73152142D01*
X139200000Y-73056904D01*
X139247619Y-73009285D01*
X139342857Y-72961666D01*
X139438095Y-72961666D01*
X139580952Y-73009285D01*
X140152381Y-73580714D01*
X140152381Y-72961666D01*
%LPC*%
D13*
X148590000Y-104180640D03*
X148590000Y-109181900D03*
X153670000Y-104180640D03*
X153670000Y-109181900D03*
D14*
X152400000Y-115570000D03*
X152400000Y-118110000D03*
X152400000Y-113030000D03*
X167640000Y-115570000D03*
X167640000Y-118110000D03*
X167640000Y-113030000D03*
D15*
X142240000Y-93980000D03*
X140970000Y-93980000D03*
X143510000Y-93980000D03*
D16*
X160020000Y-101600000D03*
X160020000Y-102870000D03*
X160020000Y-100330000D03*
D14*
X160020000Y-115570000D03*
X160020000Y-118110000D03*
X160020000Y-113030000D03*
X136525000Y-115570000D03*
X136525000Y-118110000D03*
X136525000Y-113030000D03*
X144145000Y-115570000D03*
X144145000Y-118110000D03*
X144145000Y-113030000D03*
D16*
X142240000Y-101600000D03*
X142240000Y-102870000D03*
X142240000Y-100330000D03*
D13*
X151130000Y-85130640D03*
X151130000Y-90131900D03*
X142240000Y-85130640D03*
X142240000Y-90131900D03*
X160060640Y-93980000D03*
X165061900Y-93980000D03*
X160020000Y-85130640D03*
X160020000Y-90131900D03*
X165059360Y-107950000D03*
X160058100Y-107950000D03*
X137200640Y-107950000D03*
X142201900Y-107950000D03*
X148590000Y-94020640D03*
X148590000Y-99021900D03*
D17*
X163195000Y-79375000D03*
X158115000Y-79375000D03*
X163195000Y-71755000D03*
X158115000Y-71755000D03*
D18*
X168275000Y-71755000D03*
X136525000Y-71755000D03*
X136525000Y-131445000D03*
X168275000Y-131445000D03*
D19*
X148590000Y-74930000D03*
D20*
X153590000Y-74930000D03*
D19*
X149860000Y-128270000D03*
D20*
X144860000Y-128270000D03*
D19*
X160020000Y-128270000D03*
D20*
X155020000Y-128270000D03*
D21*
X142240000Y-76835000D03*
D17*
X142240000Y-74295000D03*
X142240000Y-71755000D03*
M02*
