G04 #@! TF.FileFunction,Soldermask,Top*
%FSLAX46Y46*%
G04 Gerber Fmt 4.6, Leading zero omitted, Abs format (unit mm)*
G04 Created by KiCad (PCBNEW 4.0.2-stable) date 12/06/2016 3:02:18 PM*
%MOMM*%
G01*
G04 APERTURE LIST*
%ADD10C,0.100000*%
%ADD11C,2.398980*%
%ADD12O,2.940000X2.432000*%
%ADD13O,1.299160X1.901140*%
%ADD14O,1.901140X1.299160*%
%ADD15C,1.797000*%
%ADD16C,4.464000*%
%ADD17R,2.900000X2.900000*%
%ADD18C,2.900000*%
%ADD19R,1.797000X1.797000*%
G04 APERTURE END LIST*
D10*
D11*
X148590000Y-104180640D03*
X148590000Y-109181900D03*
X153670000Y-104180640D03*
X153670000Y-109181900D03*
D12*
X152400000Y-115570000D03*
X152400000Y-118110000D03*
X152400000Y-113030000D03*
X167640000Y-115570000D03*
X167640000Y-118110000D03*
X167640000Y-113030000D03*
D13*
X142240000Y-93980000D03*
X140970000Y-93980000D03*
X143510000Y-93980000D03*
D14*
X160020000Y-101600000D03*
X160020000Y-102870000D03*
X160020000Y-100330000D03*
D12*
X160020000Y-115570000D03*
X160020000Y-118110000D03*
X160020000Y-113030000D03*
X136525000Y-115570000D03*
X136525000Y-118110000D03*
X136525000Y-113030000D03*
X144145000Y-115570000D03*
X144145000Y-118110000D03*
X144145000Y-113030000D03*
D14*
X142240000Y-101600000D03*
X142240000Y-102870000D03*
X142240000Y-100330000D03*
D11*
X151130000Y-85130640D03*
X151130000Y-90131900D03*
X142240000Y-85130640D03*
X142240000Y-90131900D03*
X160060640Y-93980000D03*
X165061900Y-93980000D03*
X160020000Y-85130640D03*
X160020000Y-90131900D03*
X165059360Y-107950000D03*
X160058100Y-107950000D03*
X137200640Y-107950000D03*
X142201900Y-107950000D03*
X148590000Y-94020640D03*
X148590000Y-99021900D03*
D15*
X163195000Y-79375000D03*
X158115000Y-79375000D03*
X163195000Y-71755000D03*
X158115000Y-71755000D03*
D16*
X168275000Y-71755000D03*
X136525000Y-71755000D03*
X136525000Y-131445000D03*
X168275000Y-131445000D03*
D17*
X148590000Y-74930000D03*
D18*
X153590000Y-74930000D03*
D17*
X149860000Y-128270000D03*
D18*
X144860000Y-128270000D03*
D17*
X160020000Y-128270000D03*
D18*
X155020000Y-128270000D03*
D19*
X142240000Y-76835000D03*
D15*
X142240000Y-74295000D03*
X142240000Y-71755000D03*
M02*
