G04 #@! TF.FileFunction,Legend,Bot*
%FSLAX46Y46*%
G04 Gerber Fmt 4.6, Leading zero omitted, Abs format (unit mm)*
G04 Created by KiCad (PCBNEW 4.0.2-stable) date 12/06/2016 3:02:18 PM*
%MOMM*%
G01*
G04 APERTURE LIST*
%ADD10C,0.100000*%
%ADD11C,0.300000*%
%ADD12C,2.398980*%
%ADD13O,2.940000X2.432000*%
%ADD14O,1.299160X1.901140*%
%ADD15O,1.901140X1.299160*%
%ADD16C,1.797000*%
%ADD17C,4.464000*%
%ADD18R,2.900000X2.900000*%
%ADD19C,2.900000*%
%ADD20R,1.797000X1.797000*%
G04 APERTURE END LIST*
D10*
D11*
X169512143Y-95030714D02*
X169440714Y-94816428D01*
X169369286Y-94745000D01*
X169226429Y-94673571D01*
X169012143Y-94673571D01*
X168869286Y-94745000D01*
X168797857Y-94816428D01*
X168726429Y-94959286D01*
X168726429Y-95530714D01*
X170226429Y-95530714D01*
X170226429Y-95030714D01*
X170155000Y-94887857D01*
X170083571Y-94816428D01*
X169940714Y-94745000D01*
X169797857Y-94745000D01*
X169655000Y-94816428D01*
X169583571Y-94887857D01*
X169512143Y-95030714D01*
X169512143Y-95530714D01*
X168797857Y-93459286D02*
X168726429Y-93602143D01*
X168726429Y-93887857D01*
X168797857Y-94030714D01*
X168940714Y-94102143D01*
X169512143Y-94102143D01*
X169655000Y-94030714D01*
X169726429Y-93887857D01*
X169726429Y-93602143D01*
X169655000Y-93459286D01*
X169512143Y-93387857D01*
X169369286Y-93387857D01*
X169226429Y-94102143D01*
X168797857Y-92173572D02*
X168726429Y-92316429D01*
X168726429Y-92602143D01*
X168797857Y-92745000D01*
X168940714Y-92816429D01*
X169512143Y-92816429D01*
X169655000Y-92745000D01*
X169726429Y-92602143D01*
X169726429Y-92316429D01*
X169655000Y-92173572D01*
X169512143Y-92102143D01*
X169369286Y-92102143D01*
X169226429Y-92816429D01*
X169726429Y-91673572D02*
X169726429Y-91102143D01*
X168726429Y-91459286D02*
X170012143Y-91459286D01*
X170155000Y-91387858D01*
X170226429Y-91245000D01*
X170226429Y-91102143D01*
X169726429Y-90745000D02*
X168726429Y-90387857D01*
X169726429Y-90030715D02*
X168726429Y-90387857D01*
X168369286Y-90530715D01*
X168297857Y-90602143D01*
X168226429Y-90745000D01*
X168726429Y-88316429D02*
X170226429Y-88316429D01*
X169512143Y-88316429D02*
X169512143Y-87459286D01*
X168726429Y-87459286D02*
X170226429Y-87459286D01*
X169297857Y-86745000D02*
X169297857Y-85602143D01*
X169512143Y-84387857D02*
X169440714Y-84173571D01*
X169369286Y-84102143D01*
X169226429Y-84030714D01*
X169012143Y-84030714D01*
X168869286Y-84102143D01*
X168797857Y-84173571D01*
X168726429Y-84316429D01*
X168726429Y-84887857D01*
X170226429Y-84887857D01*
X170226429Y-84387857D01*
X170155000Y-84245000D01*
X170083571Y-84173571D01*
X169940714Y-84102143D01*
X169797857Y-84102143D01*
X169655000Y-84173571D01*
X169583571Y-84245000D01*
X169512143Y-84387857D01*
X169512143Y-84887857D01*
X168726429Y-83387857D02*
X169726429Y-83387857D01*
X169440714Y-83387857D02*
X169583571Y-83316429D01*
X169655000Y-83245000D01*
X169726429Y-83102143D01*
X169726429Y-82959286D01*
X168726429Y-82459286D02*
X169726429Y-82459286D01*
X170226429Y-82459286D02*
X170155000Y-82530715D01*
X170083571Y-82459286D01*
X170155000Y-82387858D01*
X170226429Y-82459286D01*
X170083571Y-82459286D01*
X168726429Y-81102143D02*
X170226429Y-81102143D01*
X168797857Y-81102143D02*
X168726429Y-81245000D01*
X168726429Y-81530714D01*
X168797857Y-81673572D01*
X168869286Y-81745000D01*
X169012143Y-81816429D01*
X169440714Y-81816429D01*
X169583571Y-81745000D01*
X169655000Y-81673572D01*
X169726429Y-81530714D01*
X169726429Y-81245000D01*
X169655000Y-81102143D01*
X169726429Y-79745000D02*
X168512143Y-79745000D01*
X168369286Y-79816429D01*
X168297857Y-79887857D01*
X168226429Y-80030714D01*
X168226429Y-80245000D01*
X168297857Y-80387857D01*
X168797857Y-79745000D02*
X168726429Y-79887857D01*
X168726429Y-80173571D01*
X168797857Y-80316429D01*
X168869286Y-80387857D01*
X169012143Y-80459286D01*
X169440714Y-80459286D01*
X169583571Y-80387857D01*
X169655000Y-80316429D01*
X169726429Y-80173571D01*
X169726429Y-79887857D01*
X169655000Y-79745000D01*
X168797857Y-78459286D02*
X168726429Y-78602143D01*
X168726429Y-78887857D01*
X168797857Y-79030714D01*
X168940714Y-79102143D01*
X169512143Y-79102143D01*
X169655000Y-79030714D01*
X169726429Y-78887857D01*
X169726429Y-78602143D01*
X169655000Y-78459286D01*
X169512143Y-78387857D01*
X169369286Y-78387857D01*
X169226429Y-79102143D01*
X166326429Y-91173571D02*
X167826429Y-91173571D01*
X167255000Y-91173571D02*
X167326429Y-91030714D01*
X167326429Y-90745000D01*
X167255000Y-90602143D01*
X167183571Y-90530714D01*
X167040714Y-90459285D01*
X166612143Y-90459285D01*
X166469286Y-90530714D01*
X166397857Y-90602143D01*
X166326429Y-90745000D01*
X166326429Y-91030714D01*
X166397857Y-91173571D01*
X166326429Y-89173571D02*
X167112143Y-89173571D01*
X167255000Y-89245000D01*
X167326429Y-89387857D01*
X167326429Y-89673571D01*
X167255000Y-89816428D01*
X166397857Y-89173571D02*
X166326429Y-89316428D01*
X166326429Y-89673571D01*
X166397857Y-89816428D01*
X166540714Y-89887857D01*
X166683571Y-89887857D01*
X166826429Y-89816428D01*
X166897857Y-89673571D01*
X166897857Y-89316428D01*
X166969286Y-89173571D01*
X167326429Y-88673571D02*
X167326429Y-88102142D01*
X167826429Y-88459285D02*
X166540714Y-88459285D01*
X166397857Y-88387857D01*
X166326429Y-88244999D01*
X166326429Y-88102142D01*
X166326429Y-87602142D02*
X167326429Y-87602142D01*
X167183571Y-87602142D02*
X167255000Y-87530714D01*
X167326429Y-87387856D01*
X167326429Y-87173571D01*
X167255000Y-87030714D01*
X167112143Y-86959285D01*
X166326429Y-86959285D01*
X167112143Y-86959285D02*
X167255000Y-86887856D01*
X167326429Y-86744999D01*
X167326429Y-86530714D01*
X167255000Y-86387856D01*
X167112143Y-86316428D01*
X166326429Y-86316428D01*
X166326429Y-84959285D02*
X167112143Y-84959285D01*
X167255000Y-85030714D01*
X167326429Y-85173571D01*
X167326429Y-85459285D01*
X167255000Y-85602142D01*
X166397857Y-84959285D02*
X166326429Y-85102142D01*
X166326429Y-85459285D01*
X166397857Y-85602142D01*
X166540714Y-85673571D01*
X166683571Y-85673571D01*
X166826429Y-85602142D01*
X166897857Y-85459285D01*
X166897857Y-85102142D01*
X166969286Y-84959285D01*
X166326429Y-84244999D02*
X167326429Y-84244999D01*
X167040714Y-84244999D02*
X167183571Y-84173571D01*
X167255000Y-84102142D01*
X167326429Y-83959285D01*
X167326429Y-83816428D01*
X166326429Y-83316428D02*
X167826429Y-83316428D01*
X166897857Y-83173571D02*
X166326429Y-82745000D01*
X167326429Y-82745000D02*
X166755000Y-83316428D01*
X165283571Y-89566428D02*
X165355000Y-89494999D01*
X165426429Y-89352142D01*
X165426429Y-88994999D01*
X165355000Y-88852142D01*
X165283571Y-88780713D01*
X165140714Y-88709285D01*
X164997857Y-88709285D01*
X164783571Y-88780713D01*
X163926429Y-89637856D01*
X163926429Y-88709285D01*
X165426429Y-87780714D02*
X165426429Y-87637857D01*
X165355000Y-87495000D01*
X165283571Y-87423571D01*
X165140714Y-87352142D01*
X164855000Y-87280714D01*
X164497857Y-87280714D01*
X164212143Y-87352142D01*
X164069286Y-87423571D01*
X163997857Y-87495000D01*
X163926429Y-87637857D01*
X163926429Y-87780714D01*
X163997857Y-87923571D01*
X164069286Y-87995000D01*
X164212143Y-88066428D01*
X164497857Y-88137857D01*
X164855000Y-88137857D01*
X165140714Y-88066428D01*
X165283571Y-87995000D01*
X165355000Y-87923571D01*
X165426429Y-87780714D01*
X163926429Y-85852143D02*
X163926429Y-86709286D01*
X163926429Y-86280714D02*
X165426429Y-86280714D01*
X165212143Y-86423571D01*
X165069286Y-86566429D01*
X164997857Y-86709286D01*
X165426429Y-84566429D02*
X165426429Y-84852143D01*
X165355000Y-84995000D01*
X165283571Y-85066429D01*
X165069286Y-85209286D01*
X164783571Y-85280715D01*
X164212143Y-85280715D01*
X164069286Y-85209286D01*
X163997857Y-85137858D01*
X163926429Y-84995000D01*
X163926429Y-84709286D01*
X163997857Y-84566429D01*
X164069286Y-84495000D01*
X164212143Y-84423572D01*
X164569286Y-84423572D01*
X164712143Y-84495000D01*
X164783571Y-84566429D01*
X164855000Y-84709286D01*
X164855000Y-84995000D01*
X164783571Y-85137858D01*
X164712143Y-85209286D01*
X164569286Y-85280715D01*
%LPC*%
D12*
X148590000Y-104180640D03*
X148590000Y-109181900D03*
X153670000Y-104180640D03*
X153670000Y-109181900D03*
D13*
X152400000Y-115570000D03*
X152400000Y-118110000D03*
X152400000Y-113030000D03*
X167640000Y-115570000D03*
X167640000Y-118110000D03*
X167640000Y-113030000D03*
D14*
X142240000Y-93980000D03*
X140970000Y-93980000D03*
X143510000Y-93980000D03*
D15*
X160020000Y-101600000D03*
X160020000Y-102870000D03*
X160020000Y-100330000D03*
D13*
X160020000Y-115570000D03*
X160020000Y-118110000D03*
X160020000Y-113030000D03*
X136525000Y-115570000D03*
X136525000Y-118110000D03*
X136525000Y-113030000D03*
X144145000Y-115570000D03*
X144145000Y-118110000D03*
X144145000Y-113030000D03*
D15*
X142240000Y-101600000D03*
X142240000Y-102870000D03*
X142240000Y-100330000D03*
D12*
X151130000Y-85130640D03*
X151130000Y-90131900D03*
X142240000Y-85130640D03*
X142240000Y-90131900D03*
X160060640Y-93980000D03*
X165061900Y-93980000D03*
X160020000Y-85130640D03*
X160020000Y-90131900D03*
X165059360Y-107950000D03*
X160058100Y-107950000D03*
X137200640Y-107950000D03*
X142201900Y-107950000D03*
X148590000Y-94020640D03*
X148590000Y-99021900D03*
D16*
X163195000Y-79375000D03*
X158115000Y-79375000D03*
X163195000Y-71755000D03*
X158115000Y-71755000D03*
D17*
X168275000Y-71755000D03*
X136525000Y-71755000D03*
X136525000Y-131445000D03*
X168275000Y-131445000D03*
D18*
X148590000Y-74930000D03*
D19*
X153590000Y-74930000D03*
D18*
X149860000Y-128270000D03*
D19*
X144860000Y-128270000D03*
D18*
X160020000Y-128270000D03*
D19*
X155020000Y-128270000D03*
D20*
X142240000Y-76835000D03*
D16*
X142240000Y-74295000D03*
X142240000Y-71755000D03*
M02*
