M48
;DRILL file {KiCad 4.0.2-stable} date 12/06/2016 3:03:12 PM
;FORMAT={2:4/ absolute / inch / suppress trailing zeros}
FMAT,2
INCH,LZ
T1C0.024
T2C0.032
T3C0.039
T4C0.045
T5C0.051
T6C0.120
%
G90
G05
M72
T1
X0555Y-037
X056Y-037
X056Y-0395
X056Y-04
X056Y-0405
X0565Y-037
X063Y-0395
X063Y-04
X063Y-0405
T2
X056Y-02825
X056Y-02925
X056Y-03025
X06225Y-02825
X06225Y-03125
X06425Y-02825
X06425Y-03125
T3
X054016Y-0425
X055985Y-0425
X056Y-033516
X056Y-035485
X0585Y-037016
X0585Y-038985
X0585Y-041016
X0585Y-042985
X0595Y-033516
X0595Y-035485
X0605Y-041016
X0605Y-042985
X063Y-033516
X063Y-035485
X063015Y-0425
X063016Y-037
X064984Y-0425
X064985Y-037
T4
X05375Y-0445
X05375Y-0455
X05375Y-0465
X05675Y-0445
X05675Y-0455
X05675Y-0465
X06Y-0445
X06Y-0455
X06Y-0465
X063Y-0445
X063Y-0455
X063Y-0465
X066Y-0445
X066Y-0455
X066Y-0465
T5
X057031Y-0505
X0585Y-0295
X059Y-0505
X060469Y-0295
X061031Y-0505
X063Y-0505
T6
X05375Y-02825
X05375Y-05175
X06625Y-02825
X06625Y-05175
T0
M30
